<svg width="24" height="24" viewBox="0 0 24 24" fill="none" xmlns="http://www.w3.org/2000/svg">
<path d="M6.75 24C7.57843 24 8.25 23.3284 8.25 22.5C8.25 21.6716 7.57843 21 6.75 21C5.92157 21 5.25 21.6716 5.25 22.5C5.25 23.3284 5.92157 24 6.75 24Z" fill="black"/>
<path d="M17.25 24C18.0784 24 18.75 23.3284 18.75 22.5C18.75 21.6716 18.0784 21 17.25 21C16.4216 21 15.75 21.6716 15.75 22.5C15.75 23.3284 16.4216 24 17.25 24Z" fill="black"/>
<path d="M19.9125 8.66156C19.8071 8.53268 19.6744 8.42888 19.5239 8.35769C19.3734 8.2865 19.209 8.24971 19.0425 8.25H4.77609L4.48875 6.61969C4.45811 6.44603 4.36726 6.28872 4.23216 6.17539C4.09706 6.06206 3.92634 5.99996 3.75 6H0.75C0.551088 6 0.360322 6.07902 0.21967 6.21967C0.0790176 6.36032 0 6.55109 0 6.75C0 6.94891 0.0790176 7.13968 0.21967 7.28033C0.360322 7.42098 0.551088 7.5 0.75 7.5H3.12094L5.26125 19.6303C5.29189 19.804 5.38274 19.9613 5.51784 20.0746C5.65294 20.1879 5.82366 20.25 6 20.25H18C18.1989 20.25 18.3897 20.171 18.5303 20.0303C18.671 19.8897 18.75 19.6989 18.75 19.5C18.75 19.3011 18.671 19.1103 18.5303 18.9697C18.3897 18.829 18.1989 18.75 18 18.75H6.62906L6.36469 17.25H17.6925C17.9526 17.2497 18.2046 17.1595 18.4058 16.9947C18.6071 16.8299 18.7452 16.6007 18.7969 16.3458L20.1469 9.59578C20.1794 9.43242 20.1753 9.26388 20.1347 9.10232C20.0942 8.94076 20.0183 8.79022 19.9125 8.66156Z" fill="black"/>
</svg>
