<svg width="36" height="16" viewBox="0 0 36 16" fill="none" xmlns="http://www.w3.org/2000/svg">
<path d="M3.66 0.96V15H0.24V0.96H3.66ZM12.9384 3.72C14.2451 3.72 15.2851 4.14667 16.0584 5C16.8451 5.84 17.2384 7 17.2384 8.48V15H13.8384V8.94C13.8384 8.19333 13.6451 7.61333 13.2584 7.2C12.8718 6.78667 12.3518 6.58 11.6984 6.58C11.0451 6.58 10.5251 6.78667 10.1384 7.2C9.75177 7.61333 9.55844 8.19333 9.55844 8.94V15H6.13844V3.84H9.55844V5.32C9.9051 4.82667 10.3718 4.44 10.9584 4.16C11.5451 3.86667 12.2051 3.72 12.9384 3.72ZM26.435 15L23.035 10.32V15H19.615V0.2H23.035V8.38L26.415 3.84H30.635L25.995 9.44L30.675 15H26.435ZM33.5783 15.16C32.9783 15.16 32.4849 14.9867 32.0983 14.64C31.7249 14.28 31.5383 13.84 31.5383 13.32C31.5383 12.7867 31.7249 12.34 32.0983 11.98C32.4849 11.62 32.9783 11.44 33.5783 11.44C34.1649 11.44 34.6449 11.62 35.0183 11.98C35.4049 12.34 35.5983 12.7867 35.5983 13.32C35.5983 13.84 35.4049 14.28 35.0183 14.64C34.6449 14.9867 34.1649 15.16 33.5783 15.16Z" fill="white"/>
</svg>
