<svg width="25" height="24" viewBox="0 0 25 24" fill="none" xmlns="http://www.w3.org/2000/svg">
<path d="M19.4615 5.56219C19.3097 5.4837 19.1618 5.39765 19.0185 5.30438C18.6019 5.02896 18.22 4.70445 17.8809 4.33781C17.0325 3.36703 16.7156 2.38219 16.5989 1.69266H16.6035C16.506 1.12031 16.5464 0.75 16.5525 0.75H12.6881V15.6928C12.6881 15.8934 12.6881 16.0917 12.6796 16.2877C12.6796 16.312 12.6773 16.3345 12.6759 16.3608C12.6759 16.3716 12.6759 16.3828 12.6735 16.3941V16.4025C12.6328 16.9386 12.4609 17.4566 12.1731 17.9107C11.8852 18.3648 11.4901 18.7413 11.0226 19.0069C10.5354 19.2841 9.98428 19.4295 9.42371 19.4288C7.62324 19.4288 6.16402 17.9606 6.16402 16.1475C6.16402 14.3344 7.62324 12.8663 9.42371 12.8663C9.76453 12.8659 10.1032 12.9196 10.4273 13.0252L10.432 9.09047C9.44825 8.9634 8.44886 9.04158 7.49685 9.32008C6.54484 9.59858 5.66088 10.0714 4.90074 10.7086C4.23467 11.2873 3.67471 11.9778 3.24605 12.7491C3.08292 13.0303 2.46745 14.1605 2.39292 15.9947C2.34605 17.0358 2.6587 18.1144 2.80777 18.5602V18.5695C2.90152 18.832 3.2648 19.7278 3.85683 20.483C4.33422 21.0887 4.89825 21.6208 5.53074 22.0622V22.0528L5.54011 22.0622C7.41089 23.3334 9.48511 23.25 9.48511 23.25C9.84417 23.2355 11.047 23.25 12.4129 22.6027C13.9279 21.885 14.7904 20.8158 14.7904 20.8158C15.3414 20.1769 15.7796 19.4488 16.086 18.6628C16.4357 17.7436 16.5525 16.6411 16.5525 16.2005V8.27297C16.5993 8.30109 17.2237 8.71406 17.2237 8.71406C17.2237 8.71406 18.1232 9.29063 19.5267 9.66609C20.5335 9.93328 21.8901 9.98953 21.8901 9.98953V6.15328C21.4148 6.20484 20.4496 6.05484 19.4615 5.56219Z" fill="white"/>
</svg>
