<svg width="33" height="24" viewBox="0 0 33 24" fill="none" xmlns="http://www.w3.org/2000/svg">
<path d="M31.9345 5.29923C31.9345 2.48681 29.8658 0.224369 27.3097 0.224369C23.8473 0.0624981 20.3161 0 16.7074 0H15.5825C11.9826 0 8.44517 0.0624982 4.98277 0.224994C2.43284 0.224994 0.364144 2.49993 0.364144 5.31236C0.207898 7.53667 0.14165 9.76161 0.1454 11.9865C0.13915 14.2115 0.209981 16.4385 0.357894 18.6676C0.357894 21.48 2.42659 23.7612 4.97652 23.7612C8.61392 23.93 12.3451 24.005 16.1387 23.9987C19.9386 24.0112 23.6593 23.9321 27.3009 23.7612C29.8571 23.7612 31.9258 21.48 31.9258 18.6676C32.0758 16.4364 32.1445 14.2115 32.1383 11.9803C32.1524 9.75536 32.0845 7.52834 31.9345 5.29923ZM13.0825 18.1176V5.83672L22.1448 11.974L13.0825 18.1176Z" fill="white"/>
</svg>
