<?xml version="1.0" encoding="UTF-8"?>
<svg id="Capa_2" data-name="Capa 2" xmlns="http://www.w3.org/2000/svg" viewBox="0 0 352.22 365.43">
  <defs>
    <style>
      .cls-1 {
        fill: #fefefe;
      }

      .cls-1, .cls-2, .cls-3, .cls-4, .cls-5, .cls-6, .cls-7, .cls-8, .cls-9, .cls-10, .cls-11, .cls-12, .cls-13, .cls-14, .cls-15, .cls-16, .cls-17, .cls-18, .cls-19, .cls-20, .cls-21, .cls-22, .cls-23, .cls-24, .cls-25, .cls-26, .cls-27, .cls-28, .cls-29 {
        stroke-width: 0px;
      }

      .cls-30 {
        fill: none;
        stroke: #000;
        stroke-miterlimit: 10;
      }

      .cls-2 {
        fill: #c9c5c6;
      }

      .cls-3 {
        fill: #fcfbfb;
      }

      .cls-5 {
        fill: #efeeef;
      }

      .cls-6 {
        fill: #f5f2f3;
      }

      .cls-7 {
        fill: #ebe9ea;
      }

      .cls-8 {
        fill: #e0dedf;
      }

      .cls-9 {
        fill: #faf9fa;
      }

      .cls-10 {
        fill: #f6f4f5;
      }

      .cls-11 {
        fill: #fff;
      }

      .cls-12 {
        fill: #dfdbdc;
      }

      .cls-13 {
        fill: #f8f8f8;
      }

      .cls-14 {
        fill: #191818;
      }

      .cls-15 {
        fill: #272727;
      }

      .cls-16 {
        fill: #eeedee;
      }

      .cls-17 {
        fill: #f5f4f5;
      }

      .cls-18 {
        fill: #d7d5d6;
      }

      .cls-19 {
        fill: #2a2a2a;
      }

      .cls-20 {
        fill: #f0eeef;
      }

      .cls-21 {
        fill: #fbfafa;
      }

      .cls-22 {
        fill: #282828;
      }

      .cls-23 {
        fill: #211e1f;
      }

      .cls-24 {
        fill: #1c1c1c;
      }

      .cls-25 {
        fill: #fdfdfd;
      }

      .cls-26 {
        fill: #faf8f9;
      }

      .cls-27 {
        fill: #f9f8f9;
      }

      .cls-28 {
        fill: #e6e4e5;
      }

      .cls-29 {
        fill: #fbf9fa;
      }
    </style>
  </defs>
  <g id="v1">
    <path class="cls-4" d="M150.74,113.82c-13.39-7.79-19.5-20.07-21.17-34.89-3.31-29.36,11.39-57.83,37.6-71.49,15.31-7.98,31.94-8.76,48.8-5.99,4.54.74,8.97,1.93,13.36,3.26,24.32,7.39,36.1,25.12,40.36,49.01,1,5.63,1.65,11.28,2.96,16.91,2.58,11.13-.78,21.28-8.36,29.85-2.49,2.82-5.83,4.67-9.61,4.9-2.96.18-4.73,1.65-6.54,3.85,3.3,1.63,6.45,3.15,9.55,4.74,7.39,3.78,11.94,9.64,13.09,17.99.24,1.76.6,3.16,2.78,4.13,3.84,1.72,3.59,11.59-.06,13.81-3.37,2.05-3.79,4.09-1.42,7.36,1.89,2.62,2.13,5.64,2.02,8.65-.42,11.27-3.01,22.08-7.65,32.35-2.1,4.64-4.82,8.64-10.9,8.85-2.14.08-3.97,2.39-6.72,2.21,5.78,5.39,9.21,11.93,11.1,18.95,1.06,3.94-.1,8.47-.25,12.74-.07,1.96-.56,4.04-.09,5.88,2.76,10.78-2.18,20.36-4.5,30.34-.35,1.5-1,3.16-3.01,3.79,3.14-5.88,3.31-12.51,5.26-18.66,1.05-3.3,1.5-6.66.71-10.1-1.57-6.9-1.06-13.8.12-20.68.31-1.79-.26-3.35-.88-4.93-1.64-4.16-3.63-8.17-6.2-11.83-2.42-3.43-5.93-5.11-10.13-5.53-2.45-.25-3,.63-3.14,3.02-1.03,17.75-6.8,33.83-17.57,48.04-3.04,4.01-6.65,7.47-11.05,9.95-11.18,6.28-20.34.96-20.64-11.94-.13-5.72,2.08-11.07,2.71-16.68.47-4.17,1.11-8.33,1.91-12.44.77-3.95,1.83-7.85,2.92-12.46-4.8,2.4-9.31,4.34-13.49,6.84-4.09,2.45-7.68,2.73-11.61-.24-2.05-1.55-4.54-2.54-7.18-3.97-1.39,5.42-1.66,10.61-1.42,15.76.33,7.39-2.93,12.45-8.98,16.28-5.55,3.5-11.51,5.67-17.98,6.46-4.68.57-8.57-1.86-8.19-6.28,1.36-15.85-2.51-31.31-2.97-47.03-.13,0-.42-.12-.6-.03-1.26.69-1.58,3.65-3.19,2.48-1.3-.94.53-2.82,1.51-3.89,2.16-2.36,3.61-5.08,4.95-7.93,3.26-6.92,8.9-11.44,15.93-13.78,4.12-1.37,5.66-3.29,4.57-7.38-.38-1.66-.76-3.32,1.71-3.65,1.9,1.22,2.01,3.28,2.32,5.2,1.53,9.21,2.52,18.45,2.21,27.81-.07,1.95-.2,3.93.57,6.79-.41-12.45.26-24-1.75-35.45-.44-2.51-1.11-4.84-2.86-6.76-.77-2.06-.35-3.37,2.13-3.37.97.03,1.78-.3,2.46-1.01.55-.57,1.23-1.48,1.87-1.35,5.31,1.12,8.44-3.54,12.86-4.74,2.22-.6,4.36-.71,5.76,1.19,1.68,2.28,3.51,4.74,2.53,7.9-.35,1.13-1.13,2.21-2.52,2.13-1.59-.09-1.65-1.37-1.75-2.6-.11-1.26.1-3.08-1.47-3.25-1.29-.14-3.2.23-3.89,1.48-1.68,3.03-4.36,2.31-6.67,2.4,2.65.52,5.55,1.27,8.11,2.61,3.35,1.75,5.64.82,7.78-1.78,2.47-3,5.7-3.99,9.48-3.56,1.52.17,3.04.54,3.64,1.96.97,2.28,2.2,1.94,4,1.07,3.06-1.47,6.12-2.9,9.47-3.77,2.4-.62,3.85-1.78,3.08-5.35-.84-3.89-1.18-7.41-5.4-9.28-1.04,2.34-.67,3.96,1.69,5.45,2.04,1.28,3.26,3.42,3.23,6-.02,1.62-.83,2.8-2.47,3.1-1.5.28-2.11-.8-2.46-2-1.01-3.43-3.7-3.29-6.27-2.67-1.19.29-2.19.97-3.15-.17-1.1-1.31-.73-2.7.01-4.04.39-.7.94-1.29,1.6-1.72,1.74-1.13,2.46-3,.97-4.23-1.15-.95-3.87-1.06-4.81.46-1.94,3.13-3.97,1.55-6.06.69-.97-.4-1.3-1.92-2.94-.23-1.67,1.72-4.21-.36-3.63-3.37.72-3.71-.77-4.49-3.94-3.99-.57-.12-1.01-.42-1.32-.92-.72-.9.05-3.02-2.19-2.67-1.17.78-2.36,1.31-3.4-.11-1.04-1.41-.03-2.4.83-3.39,2.36-1.97,4.85-1.97,7.2-.12,2.87,2.25,6.17,3.88,8.61,6.8,2.29,2.74,3.62,2.49,6.16-.12,5.02-5.14,10.98-5.66,16.47-1.42.74.57,1.86,1.22,1.76,2.02-.62,5,3.16,8.25,4.78,12.33,1.66,4.18,2.79,8.16.43,12.46,2.52-2.49,3.46-5.48,3.5-8.82.01-1.05.01-2.11.23-3.14.28-1.36.84-2.61,2.38-2.78,1.58-.17,2.67,1.01,2.7,2.32.12,4.41,3.04,4.26,6.01,3.89,8.39-1.04,20.83,7.87,20.35,17.74,3.27-10.55,4.25-20.86,1.6-31.33-1.38-5.45-2.77-6.47-8.36-5.85-6.38.7-11.86,3.16-15.9,8.43-1.12,1.46-2.18,4.01-4.5,2.89-2.53-1.23-1.2-3.7-.58-5.61,2.19-6.8,6.02-12.5,11.63-16.99.99-.79,3.17-1.28,2.16-3.12-.82-1.5-2.59-2.18-4.41-2.15-1.21.02-2.28.6-3.37,1.05-6.09,2.54-12.37,4.41-18.95,5.18-2.47.29-4.41,1.5-6.27,3.04-4.83,3.98-10.44,4.68-16.37,3.58-3.06-.57-6.16-1.89-7.59-4.54-2.45-4.55-6.49-6.09-10.87-7.66-3.43-1.22-7.02-2.3-9.66-5.09-1.78-1.28-3.93-2.09-5.2-4.03Z"/>
    <path class="cls-4" d="M43.07,187.45c4.17,3.91,4.81,8.33,2.93,13.16-.5,1.28-.47,1.94.99,2.23,1.66.33,2.34,1.41,1.33,2.8-.94,1.29-2.06.73-2.83-.45-.96-1.45-1.85-1.13-3.24-.36-7.62,4.21-13.16,2.03-16-6.19-.56-1.61-1.84-2.65-3.1-3.41-1.42-.85-3.09,1.05-2.65,1.61,3.19,4.12-1.02,5.81-2.77,7.48-3.49,3.33-7.4,6.26-10.77,9.75-1.42,1.47-2.09,1.09-3.19-.55-5.31-7.91-5.36-7.84,2.42-13.38,2.34-1.67,4.49-3.62,6.84-5.28,1.47-1.04,2.89-2.99,5.05-.86.77.76,1.41-.19,1.94-.7.66-.64.18-1.18-.29-1.65-.92-.93-1.88-1.83-2.81-2.75-3.7-3.69-3.57-7.6.37-11.44,3.59-3.5,7.16-3.29,10.82.67,1.33,1.44,2.47,3.09,3.91,4.4,1.68,1.53,3.47,1.07,3.45-1.2-.02-2.05,1.19-2.79,2.33-3.73,4.56-3.76,9.63-6.78,14.67-9.84,1.84-1.12,3.19-.86,4.23,1.02.19.34.36.7.54,1.05,4.87,9.14,4.75,9.51-4.63,13.65-2.99,1.32-6.04,2.52-9.52,3.97Z"/>
    <path class="cls-4" d="M167.25,135.81c-.32.78-1.82,1.52-.28,2.41,1.5.87.95-1.61,2.1-1.44,1.09,1.06,1.8,2.42,2.8,3.55.37.38.73.76,1.1,1.14,3.09,3.46,3.47,6.44.66,9.76-2.49,2.95-4.8,6.24-8.68,7.7-.91.34-1.3,1.24-1.81,2-.7,1.04-1.85,1.95-2.97,1.53-3.71-1.38-5.61,1.02-7.65,3.27-1.2.05-2.93-.72-2.59,1.69-.16.08-.32.15-.49.23-.37-.07-.67-.24-.92-.52-.75-1.17-.78-2.41-.38-3.69,2.4-3.05,5.02-5.74,9.32-5.75,2.28,0,3.07-2.25,4.68-3.3,2.46-1.6,5.03-3.22,6.9-5.64,1.33-1.72,1.36-3.16.03-4.93-5.12-6.81-11.74-9.08-19.35-6.48-8.3,2.83-13.68,9.9-13.56,17.8.07,4.64,1.28,6.31,5.67,7.79,1.48.5,3.08.71,4.38,1.69.96,1.1,1.23,2.12-.3,2.96-10.7.66-16.17-7.57-16.45-16.15-.51-15.68,5.88-27.64,19.74-35.4.74-.41,2.82-.29,1.53-2.24,2.08-.19,3.25,3.5,5.79,1.37.45.69-.14,1.21-.29,1.8-4.49,2.65-9.4,4.62-13.06,8.47,3.62-.58,7.34-.02,10.91,1.3,1.74.64,2.94.63,3.83-1.27.64-1.34,1.75-2.56,3.43-1.69,1.53.8.98,2.34.52,3.51-1.15,2.89-.34,4.75,2.53,5.9,1.22.49,2.25,1.35,2.86,2.59Z"/>
    <path class="cls-4" d="M95.64,262.87c-7.33,1.89-14.68,3.6-21.78,6.18-2.35.85-4.7,1.7-6.5,3.55-3.3,3.38-2.71,7.13,1.52,9.19,2.11,1.03,4.44,1.68,6.43,2.9,3.72,2.28,3.73,5.13.32,7.8-3.05,2.4-6.79,3.37-10.21,5.01-3.16,1.51-5.91,3.42-7.48,6.67-1.86,3.83-1.04,6.85,2.53,9.14,4.06,2.61,8.62,3.21,13.25,2.62,6.5-.84,12.93-2.25,19.43-3.01,4.16-.49,8.76-1.58,11.56,3.34.53.93,1.89.75,2.94.82,3.46.22,7.04-.3,9.56,3.21.89,1.24,2.92.77,4.5.42,4.15-.92,8.31-1.81,12.59-2.28-3.07,2.39-6.84,2.71-10.4,3.58-3.61.88-6.94,1.37-10.07-2.02-1.22-1.32-4.49-.75-6.83-1-1.95-.21-3.91-.19-4.86-2.52-.72-1.79-2.52-1.57-4.08-1.68-5.59-.39-10.95,1.01-16.36,2.05-5.83,1.11-11.66,2.03-17.55.53-4.23-1.08-8.21-2.87-9.22-7.55-1.05-4.85,1.46-8.59,5.1-11.62,2.88-2.39,6.37-3.59,9.78-4.95.73-.29,1.46-.6,2.14-.99,1.56-.88,3.8-1.44,3.72-3.59-.08-2.09-2.27-2.67-3.9-3.45-.94-.45-1.97-.7-2.95-1.09-2.79-1.12-5.23-2.64-5.57-5.98-.36-3.49,1.29-6.1,4.05-8.01,4.19-2.89,9.14-3.88,13.93-5.22,4.7-1.32,9.47-2.3,14.42-2.04Z"/>
    <path class="cls-24" d="M234.97,315.5c2.8-2.95,6.07-2.48,9.28-1.63,1.75.46,3.36,1.45,5.06,2.13,2.9,1.15,5.49.9,7.07-2.12,2.47-4.71,6.57-5.59,11.33-5.16,1.96.18,3.95.56,5.87.34,4.4-.5,5.87-3.17,4.28-7.26-1.19-3.06.12-5.71,3.33-6.78,3.32-1.11,6.49.03,9.69.62,2.86.53,5.71,1.11,8.45-.41,3.23-1.78,3.59-4.49.88-6.98-2.29-2.11-5.28-2.79-8.15-3.72-4.81-1.55-5.63-5.52-1.75-8.8,1.69-1.43,3.69-2.49,5.57-3.67,6.92-4.35,6.87-11.22-.08-15.68-4.51-2.9-9.68-3.1-14.74-3.62-3.26-.33-6.55-.36-9.83-.43-3.25-.07-6.5-.01-10-.01,2.3-1.47,4.79-1.38,7.18-1.55,7.77-.55,15.46.15,23.05,1.85,2.86.64,5.44,1.91,7.59,3.95,5.56,5.28,4.91,12.43-1.5,16.62-1.97,1.29-4.09,2.41-5.86,3.94-2.7,2.34-2.23,4.35,1.18,5.33,2.41.7,4.8,1.42,6.92,2.73,2.7,1.67,4.71,3.84,3.96,7.41-.78,3.66-3.47,5.04-6.81,5.52-2.92.42-5.75-.27-8.56-.93-1.81-.42-3.61-.76-5.45-.52-3.05.4-3.91,2.04-2.68,4.9,1.98,4.62-.31,8.75-5.46,9.29-2.84.3-5.76-.05-8.63-.23-3.58-.22-6.41.8-8.23,4.13-1.6,2.93-4.08,4.61-7.48,3.56-5.03-1.55-9.85-4.03-15.49-2.83Z"/>
    <path class="cls-4" d="M239.81,309.54c2.27-1.17,4.37-.21,6.41.64,2.53,1.05,4.22.61,5.28-2.1,1.42-3.63,3.91-5.43,8.01-4.42,2.38.59,4.63.06,5.58-2.42,1.1-2.88-1.7-3.34-3.28-4.47-1.59-1.14-3.45-1.99-4.82-3.34-3.9-3.86-3.26-8.73,1.55-11.39,2.41-1.33,3.82-2.38,2.04-5.36-.99-1.65-.22-3.65,1.45-4.87,2.36-1.72,5-2.5,7.74-1.11,1.49.76,2.72,2.02,4.09,3.02,3.75,2.71,7.43,1.93,9.43-2.24,1.15-2.4,2.22-4.6,4.69-6.05,2.53-1.48.52-2.58-.78-3.3-6.26-3.45-12.87-4.22-19.77-2.27-.88.25-1.73.62-2.59.92-.66.23-1.37.31-1.68-.43-.34-.8.37-1.08.94-1.41,6-3.51,20.5-2.12,25.58,2.48,1.92,1.74,2.25,3.74-.06,5.22-2.22,1.43-3.5,3.24-4.5,5.65-2.02,4.87-7.86,6.33-12.19,3.28-1.17-.82-2.14-1.95-3.33-2.73-1.97-1.29-4.04-1.02-5.9.26-1.82,1.26-1.25,2.88-.51,4.55,1.1,2.5.16,4.12-2.21,5.41-5.9,3.21-5.97,6.9-.31,10.76.97.66,1.97,1.34,3.04,1.79,2.61,1.1,4.22,2.86,3.52,5.78-.75,3.09-3.25,4.94-6.13,4.35-4.47-.93-6.81.35-8.4,4.59-1.18,3.13-4.13,2.78-6.73,1.72-1.96-.8-3.81-1.79-6.02-1.1-.32.2-.71.32-.89-.1-.29-.7.06-1.14.75-1.35Z"/>
    <path class="cls-4" d="M206.69,320.92c-.85,2.29-2.7,2.46-4.46,2.78-4.6.83-8.86,2.31-12.28,5.71-1.7,1.68-3.9,2-6.22,1.86-4.06-.25-8.13-.42-12.2-.67-2.51-.15-4.16-1.43-6.21-3.05-3.04-2.4-6.64-5.03-10.88-5.49-2.61-.29-4.88-1.06-6.65-2.98-2.27-2.46-6.03-1.93-8.33-4.21-2.11-2.09-4.22-4.11-7.37-4.75,2.28-1.06,4.45-1.06,6.06.9,1.94,2.36,4.94,2.91,7.15,4.53,4.97,3.65,11.22,3.95,16.3,7.14,2.5,1.57,5.98,1.6,7.29,5.04.17.44,1.68.45,2.58.5,2.62.16,5.27.06,7.87.4,4.45.59,8.21.21,11.93-3.11,4.21-3.76,10.48-2.17,15.42-4.62Z"/>
    <path class="cls-4" d="M104.09,256.22c.22-1.95.39-3.91.68-5.85,1.01-6.62-1.22-12.84-2.59-19.11-.56-2.57-1.07-4.79.24-7.12,3.3-5.83,7.24-11.21,11.58-16.3.58-.68,1.35-1.29,2.17-1.64.93-.4,2.32-.73,2.81.38.81,1.84-1.01,1.13-1.76,1.52-.78.41-1.52,1.02-2.09,1.69-3.9,4.61-7.33,9.55-10.36,14.77-.94,1.62-1.44,3.19-.71,5.19,2.27,6.17,3.08,12.72,2.56,19.16-.71,8.77.34,17.15,3.11,25.4.22.65.56,1.31-.06,1.76-.91.66-1.45-.13-1.83-.79-.64-1.14-1.5-2.28-1.69-3.51-.8-5.16-1.39-10.35-2.07-15.56Z"/>
    <path class="cls-4" d="M89.22,268.29c-4.62,1.88-9.18,3.87-13.01,7.2-.69.6-1.61,1.14-1.48,2.16.17,1.33,1.43,1.39,2.41,1.62,3.57.85,7.18,1.55,10.73,2.47,1.76.46,3.52,1.09,5.11,1.96,6.73,3.67,6.86,10.62.36,14.55-2.51,1.52-5.28,2.34-8.08,2.98-4.32.99-8.37,2.27-10.16,7.2-1.11-2.64-.98-3.5.77-5.21,2.14-2.09,4.88-2.94,7.7-3.7,3.28-.89,6.69-1.46,9.58-3.44,4.02-2.76,4.18-6.67.38-9.72-2.54-2.04-5.61-2.75-8.7-3.41-2.95-.63-5.9-1.27-8.81-2.03-4.05-1.06-4.73-3.54-1.58-6.41,3.71-3.39,8.01-5.88,12.96-7.09.82-.16,1.81-.67,1.81.88Z"/>
    <path class="cls-4" d="M239.81,309.54c-.12.5-.73,1.04.13,1.44-2.59-.87-4.34.76-6.3,1.98-3.03,1.89-6.87.97-10.03,3.07-2.33,1.55-5.2,2.32-7.45,4.24-.82.7-2.16.97-3.29,1.07-1.04.09-2.81.48-2.84-1.13-.03-1.57,1.67-.54,2.54-.89,3.99-1.6,7.24-4.62,11.39-5.91.99-.31,1.92-1.28,2.85-1.25,5.97.19,9.38-4.13,13.38-7.4,2.42-1.98,3.73-4.41,3.89-7.77.21-4.27,2.86-7.64,5.4-11.42,1.01,2.32-.3,3.57-.91,4.87-1.33,2.86-2.44,5.61-2.46,8.95-.03,4.56-4.03,6.75-6.97,9.49-.05.05-.01.29.06.34.18.14.41.23.61.33Z"/>
    <path class="cls-4" d="M134.99,315.11c-2.76,2.23-12.33,2.62-15.01.61-.1-.08-.17-.22-.28-.27-4.31-1.79-9.39-2.11-12.07-6.98-.48-.88-2.67-.44-4.14-.22-7.14,1.05-14.3,1.97-21.46,2.96-1.97.27-3.81.21-5.88-1.62,9.35.02,17.79-2.22,26.39-3.22,4.07-.48,8.02-.69,9.74,4.29.18.52.93,1.14,1.45,1.18,6.46.48,12.29,5.06,19.16,2.9.65-.2,1.54-.49,2.11.37Z"/>
    <path class="cls-4" d="M110.16,277.79c1.65,1.25,1.17,2.64.51,3.95-1.32,2.61-.78,5,.44,7.5,1.97,4.02,4.38,7.75,6.86,11.46,2.31,3.45,4.96,6.13,9.62,5.45.7-.1,1.53.28,2.22.6.58.27,1.1.83.9,1.55-.23.83-.9.52-1.57.53-6.51.1-11.23-2.66-14.3-8.44-1.72-3.24-3.61-6.38-5.57-9.48-2.91-4.61-1.87-8.85.88-13.12Z"/>
    <path class="cls-4" d="M112.69,252.01c.43,4.37.24,8.82,1.65,13.08.36,1.09.59,2.72,2.04,2.4,1.29-.29,1.19-1.93,1.07-3.07-.39-3.91-.85-7.82-1.39-11.72-.16-1.12-.34-2.41-1.64-2.92-.77-.3-1.66-.55-.89-1.54.52-.68,1.4-.62,2.15-.2,1.81,1.02,2.35,2.87,2.58,4.66.52,4.03.84,8.08,1.11,12.14.14,2.13.06,4.53-2.53,5.12-2.73.61-3.6-1.7-4.23-3.71-1.47-4.69-1.71-9.44.08-14.24Z"/>
    <path class="cls-4" d="M112.93,286.66c2.23-.4,3.51.93,4.61,2.29,3.18,3.94,4.99,8.58,6.32,13.41.21.78.7,2-.66,2.2-1.2.17-1.41-1.23-1.53-1.92-.53-3.31-2.15-6.15-3.52-9.11-1.22-2.63-2.8-4.98-5.22-6.87Z"/>
    <path class="cls-4" d="M158.16,315.45c-5.31.68-9.34-.82-13.37-2.22-1.15-.4-1.85-1.44-2.42-2.48-.14-.25-.05-.8.14-1.01.19-.19.79-.27.98-.12,4.04,3.25,9.25,3.69,14.66,5.82Z"/>
    <path class="cls-4" d="M252.56,272.15c-4.54,4.35-3.46,11.33-7.96,16.18.1-5.07,4.13-13.69,7.96-16.18Z"/>
    <path class="cls-4" d="M209.17,315.62c2.9-4.03,7.71-4.19,11.68-6.06-2.77,4.29-7.77,4.08-11.68,6.06Z"/>
    <path class="cls-4" d="M171.61,318.94c-3.72,1.28-6.99.29-9.94-2.13,3.41.19,6.46,2.16,9.94,2.13Z"/>
    <path class="cls-4" d="M194.99,317.56c-3.06.5-5.67.97-8.3,1.34-.69.1-1.78.29-1.85-.76-.08-1.13,1.02-.84,1.74-.96,2.69-.45,5.41-1.61,8.42.38Z"/>
    <path class="cls-23" d="M145.92,167.61c.47-.82.61-1.65.08-2.5.48-1.1,1.16-1.65,2.33-.84.23,1.01.46,2.01.69,3.02.1,1.66.09,3.24-2.21,3.29l-.9-2.98Z"/>
    <path class="cls-19" d="M89.22,268.29c-.6-.29-1.21-.58-1.81-.88,3.5-1.54,7.13-1.79,10.91-.91-3.03.6-6.07,1.19-9.1,1.79Z"/>
    <path class="cls-4" d="M118.91,274.12c-.27,1.01-1.06,1.31-1.99,1.33-.79.02-1.76-.08-1.82-.97-.09-1.32,1.18-.97,1.95-1.16.78-.19,1.53-.2,1.86.79Z"/>
    <path class="cls-4" d="M239.95,301.77c.3.73.22,1.23-.47,1.27-1.51.07-1.35-1.31-1.71-2.18-.22-.53.07-1.19.64-1.19,1.47,0,1.11,1.47,1.55,2.11Z"/>
    <path class="cls-4" d="M188.37,324.7c-.5.83-.55,2.13-1.91,2.14-.58,0-.97-.62-.71-1.12.44-.84.34-2.24,1.8-2.21.62.02.76.62.81,1.19Z"/>
    <path class="cls-4" d="M172.42,321.34c.61,1.9,1.05,3.14.37,4.57q-1.61-1.71-.37-4.57Z"/>
    <path class="cls-4" d="M177.04,326.47c-.77-1.41-1.32-2.75-.3-4.27q1.47,2.01.3,4.27Z"/>
    <path class="cls-15" d="M146.82,170.58c2.07-.2.42-2.9,2.21-3.29,0,0,.16.18.16.18.79,1.06.95,2.11-.08,3.12-1.52.7-1.49,2.13-1.63,3.47-.68-1.07-.75-2.26-.65-3.48Z"/>
    <path class="cls-4" d="M129.47,303.83c-1.14,1.55-2.29,1.63-3.52.77-.22-.15-.37-.84-.24-.97,1.12-1.12,2.27-.61,3.76.2Z"/>
    <path class="cls-4" d="M251.96,220.23c-.92,1.88-2.58,2.24-4.11,2.77.43-2,1.58-3.02,4.11-2.77Z"/>
    <path class="cls-4" d="M118.41,282.75c-.12.98-.57,1.73-1.5,2-.58.17-1.01-.31-.98-.85.04-.95.64-1.67,1.49-1.99.53-.2.88.31,1,.84Z"/>
    <path class="cls-22" d="M254.11,261.42c.92,1.6.55,2.94-.56,4.56-.96-1.97-.3-3.29.56-4.56Z"/>
    <path class="cls-4" d="M182.31,324.63c.35-.75.37-1.81,1.51-1.95.66-.08.96.43.83.95-.23.95-.36,2.13-1.68,2.18-.62.02-.64-.64-.65-1.18Z"/>
    <path class="cls-4" d="M234.26,301.71c1.36.88,2.09,1.85,2.46,3.27q-2.08-.67-2.46-3.27Z"/>
    <path class="cls-4" d="M122.89,288.39c-.34.88-.87,1.68-1.8,1.9-.5.12-1.08-.44-.98-.97.18-.95.95-1.61,1.81-1.91.49-.17.9.38.97.98Z"/>
    <path class="cls-4" d="M253.32,225.27c-.43,1.05-1.28,1.59-2.33,1.8-.67.13-1.04-.48-.9-.93.32-1.11,1.34-1.5,2.35-1.78.78-.22.75.44.88.91Z"/>
    <path class="cls-1" d="M148.45,108.58c1.6-.65,2.6,0,3.68.5,18.14,8.61,37.1,9.63,56.57,6.17,2.61-.46,3.75-1.67,4.15-4.25.87-5.69,3.56-10.73,8.27-13.84,9.97-6.58,14.25-16.41,17.19-27.26,1.8-6.63,2.55-13.39,2.67-20.24.11-6.34-2.82-10.94-7.72-14.69-13.33-10.23-28.64-15.66-44.91-18.85-8.93-1.75-17.93-1.83-27.01-.93,9.63-7.16,20.53-10.66,32.26-11.6,14.12-1.12,27.74,1.25,40.82,6.6,18.6,7.6,27.31,22.79,31.43,41.41.23,1.02.44,2.05.58,3.09.28,2.21,1.36,4.83.55,6.55-1.05,2.23-3.83.02-5.89.45-3,.63-6,1.25-8.33,3.25-8.76,7.51-12.88,16.98-11.46,28.59.44,3.63,2.08,6.85,4.94,9.13,1.96,1.56,1.66,2.25-.17,3.58-30.52,22.27-59.84,24.89-93.16,5.2-1.44-.85-2.82-1.81-4.46-2.87Z"/>
    <path class="cls-25" d="M167.25,135.81c-2.67-.33-4.41-2.64-6.98-3.27-1.16-.29-.74-1.51-.5-2.36.43-1.51.92-3,1.41-4.49.2-.6.65-1.26-.17-1.68-.8-.4-1.31.26-1.45.84-1.18,5-4.02,4.06-7.57,2.54-3.64-1.55-7.6-1.25-12.47-.06,5.45-5.03,9.77-9.77,16.72-10.34,5,3.24,10.57,5.18,16.14,7.11,1.05.36,2.1.42,2.77,1.79,4.69,9.44,16.37,11.84,24.25,4.78,2.42-2.17,4.89-3.09,7.94-3.47,6.29-.78,12.52-2.29,18.06-5.24,5.29-2.82,7.94.76,11.81,3.39-8.88,4.26-13.73,11.44-16.63,20.16-.17.5-.4.98-.49,1.49-.18.97-1.13,2.19.08,2.85,1.37.75,1.65-.9,2.18-1.62,5.27-7.17,12.17-10.96,21.2-10.72,3.13.08,4.95,1.15,5.94,4.39,3.86,12.59,2.74,24.79-2.4,36.96-.21-6.82-2.93-12.04-8.53-15.9-5.61-3.87-11.62-4.24-18.17-2.77,0-1.86.04-3.53-.01-5.19-.04-1.11-.36-2.17-1.76-2.13-1.51.04-1.34,1.17-1.41,2.26-.53,8.22-1.48,10.56-6.26,15.45,0-1.72-.53-3.46.09-4.57,3.61-6.44-1.45-11.29-2.81-16.79-.39-1.56-2.02-1.89-3.35-2.42,2.51-3.25,1.52-3.62-.93-6.32-4.1-4.52-8.2-1.47-11.73-.53-2.48.66-4.14,4.44-5.9,6.51-4.57-2.6-5.81-7.84-10.85-8.64-.66-.1-1.08-1.38-1.72-2-2.13-2.06-4.31-2.2-6.48-.01Z"/>
    <path class="cls-25" d="M225.72,40.48c.55,6.24-1.72,9.02-7.8,9.49-7.39.57-14.03-1.62-19.81-6.18-3.13-2.47-6.24-5.48-5.15-9.87,1.16-4.66,5.54-4.97,9.52-5.77-16.93-6.18-34.09-9.44-52.07-3.61.51-2.02,2.13-2.24,3.51-2.72,14.51-5.03,28.97-3.4,43.38.47,11.75,3.15,22.71,8,32.65,15.11,5.01,3.59,7.26,8.1,7,14.39-.39,9.3-2.28,18.18-5.74,26.76-2.25,5.58-5.52,10.38-10.57,13.87-5.95,4.11-9.97,9.66-11.58,16.75-.48,2.1-1.81,2.71-3.38,2.29-1.89-.51-.54-2.14-.36-3.14.97-5.38,3.54-10.18,8-13.13,12.21-8.06,15.45-20.58,17.72-33.69.53-3.08.6-6.26.69-9.41.13-4.73-1.39-8.73-6.01-11.61Z"/>
    <path class="cls-1" d="M198.27,222.63c6.87,8.28,22.96,12.54,33.05,8.1-1.84,7.49-4.68,14.15-8.48,20.37-3.78,6.18-7.97,12.11-14.4,15.88-3.65,2.15-7.73,4.22-11.85,1.76-4.3-2.58-5.39-7.43-4.65-11.81,1.86-10.97,2.98-22.09,5.68-32.91.11-.45.4-.87.64-1.38Z"/>
    <path class="cls-25" d="M257.07,121.43c-5.8-.67-8.27,3.27-10.69,7.73-4.13-3.58-7.8-7.62-12.65-10.74,3.17-2.01,6.13-3.8,9-5.73,1.35-.91,2.59-.92,4.04-.36,4.54,1.77,8.88,3.88,12.9,6.66,5.95,4.12,8.05,10.27,8.4,17.01.81,15.47-1.98,30.58-5.11,45.64-.45,2.16-1.76,2.78-3.57,2.88-3.52.19-7.05.28-10.99-.31,2.78-5.61,4.98-11.26,5.89-17.33,1.72-11.45.91-22.49-4.93-32.81-1.84-3.26.47-8.71,4.66-11.18.96-.57,2.02-.97,3.03-1.45Z"/>
    <path class="cls-1" d="M128.89,213.93c6.85,1.33,13.63,1.68,20.61.37,3.53-.66,6.88,1.94,10.21,3.35.93.39.46,1.37.31,2.11-1.21,5.94-1.51,11.96-1.35,18,.09,3.43-1.31,6.21-3.82,8.26-5.57,4.55-11.87,7.58-19.14,8.37-3.27.35-5.64-1.08-5.21-4.18,1.65-12.03-1.27-23.73-1.95-35.58-.01-.22.22-.45.34-.68Z"/>
    <path class="cls-1" d="M189.76,182.92c3.03-1.75,6.17-2.1,9.22-2.69,5.82-1.12,11.05-3.43,14.99-7.92,1.73-1.97,2.83-1.48,4.37-.05,6.53,6.04,10.2,13.47,11.17,22.3.2,1.79-.28,2.85-1.89,3.8-9.9,5.83-20.47,6.71-31.49,4.48-1.81-.37-3.45-1.26-4.86-2.45-.98-.83-2.18-1.7-.79-3.19.87-.93.91-1.97-.22-2.66-1.58-.95-1.3-1.62.05-2.49,1.08-.7,1.08-1.72.32-2.7-.47-.61-1.32-1.3-.33-1.91,2.87-1.76.64-3.11-.52-4.51Z"/>
    <path class="cls-1" d="M234.82,213.21c-.25,2.21-.42,4.97-.91,7.67-1.3,7.2-2.49,8.33-9.83,8.87-7.01.52-13.46-1.56-19.52-4.91-1.86-1.03-3.19-2.71-4.24-4.55-1.59-2.78-.98-5.01,1.84-6.52,2.65-1.41,5.58-2.43,6.21-5.98.22-1.2,1.46-.88,2.31-.93,6.95-.39,13.42-2.31,19.21-6.2,1.93-1.29,2.6-.8,3.22,1.18,1.11,3.54,1.53,7.16,1.7,11.37Z"/>
    <path class="cls-26" d="M152.53,165.75c.95-2.68,2.23-4.97,5.68-4.16,2.06.48,3.5-.14,4.67-1.91,1.43-2.18,3.93-3.62,5.82-4.96,5.16-3.66,7-7.47,4.28-13.24,1.41-.86,2.73-2.31,4.53-.77,1.55,1.33,1.59,2.9.64,4.59-.47.83-.77,1.71-.33,2.62.33.68.66,1.57,1.64,1.4,1.16-.2.89-.95.55-1.77-.5-1.21.17-2.35,1.17-2.52,1.26-.21.95,1.17,1.19,2,.89,3.03,4.12,1.23,5.54,3.04,1.08-1.48-1.7-7.7,3.59-2.72.66.62,1.2.07,1.52-.57.44-.89.87-1.69,2.05-.96.89.55,1.33,1.21.8,2.28-.16.32-.26.97-.09,1.1,3.47,2.79.35,3.12-1.44,4.11-2.39,1.32-3.42,3.05-.83,5.98.5-2.82.88-6.25,3.69-1.78.13.2.85.31,1.04.15,4.79-4.16,2.22,2.85,4.27,2.8-.34.79-1.85,1.94.3,2.12,1.75.15,2.51-1.16,2.4-2.87-.18-3.04-2.84-5.43-6.64-5.9.71-1.5,1.68-2.99.79-4.67-.51-.97-1.29-1.85.35-2.45,1.11-.41,2.39-.25,2.64.86.37,1.71.96,2.1,2.62,1.6.93-.28,2.11.51,1.6,1.54-.91,1.81-.16,2.49,1.3,3.25.82.43.75,1.43.19,2.06-1.35,1.54-1.5,2.32.75,3.35,2.24,1.03.82,2.14-.69,2.78-5.99,2.57-11.98,5.15-18.2,7.81-.02-1.94-.08-4.48-2.08-4.51-2.56-.04-6.02-1.66-7.63.71-1.56,2.3-5.72,2.13-5.33,6,.07.71-.74.42-1.2.26-5.43-1.93-10.86-3.85-16.27-5.83-.23-.08-.28-.65-.65-1.57,2.85,1.41,5.32.33,7.8.34,2,.01,2.44.05,1.33-1.87-.51-.88.96-1.74,1.07-1.56,2.23,3.58,4.71-5.2,6.63.12.68,1.87,2.18,3.98-.18,5.73.63.66,1.19.71,1.62.4,3.73-2.71.66-5.53-.26-7.97-.84-2.24-3.02-3.04-5.53-1.47-2.14,1.34-5.52.85-6.2,4.42-.05.26-2.34.49-3.31.08-2.37-1.02-4.1-.92-4.93,1.79-.46,1.48-1.55.35-2.26.72Z"/>
    <path class="cls-29" d="M175.63,222.54c-3.1-.86-4.56-2.3-4.51-5.79.21-13.89,1.3-27.76.84-41.88,2.72.94,5.22,2.27,7.84,2.57,2.73.31,4.91-2.17,8.07-3.09-1.35,4.64-.9,9.06-2.17,13.36-.55,1.86-.12,4.34.28,6.35,1.65,8.18-.42,16.11-1.24,24.1-.32,3.16-4.38,2.68-7.15,5.35,1.82-9.78,2.5-18.54,2.53-27.36.02-4.59.28-9.18.31-13.76,0-1.18.82-3.25-.85-3.36-1.84-.12-1.09,1.99-1.13,3.13-.28,8.91-.07,17.83-.83,26.74-.38,4.55-1.05,9.05-2,13.63Z"/>
    <path class="cls-25" d="M232.26,195.27c-1.12-10.96-5.51-19.56-13.58-26.22-1.7-1.4.19-6.13,2.73-7.08,10.55-3.98,24.17,5.33,24.36,16.66.04,2.55-.6,4.87-2.36,6.85-3.15,3.54-6.77,6.53-11.15,9.8Z"/>
    <path class="cls-25" d="M149.61,197.89c0,3.67-.07,7.34.03,11,.05,2-.92,2.84-2.72,3.1-5.49.79-10.96.79-16.39-.47-2.14-.49-2.69-1.85-2.82-3.98-.8-12.93,9.19-20.8,18.85-24.08,1.91-.65,2.27.33,2.38,1.86.31,4.18.65,8.36.98,12.54-.1,0-.21,0-.31,0Z"/>
    <path class="cls-25" d="M261.74,186.39c-1.27,4.92-2.32,9.34-4.53,13.4-2.59,4.75-6.49,7.01-11.9,6.63-.65-.05-1.31-.11-1.96-.15-5.74-.35-7.77-2.33-8.23-7.93-.06-.75.11-1.26.7-1.66.32-.22.64-.46.96-.68,3.93-2.63,6.32-7.95,10.43-9.08,4.17-1.15,9.24.39,14.53-.52Z"/>
    <path class="cls-21" d="M268.11,67.8c-9.34,2.04-18.66,24.13-14.4,34.47-2.49.26-4.32-.75-5.91-2.38-2.83-2.89-3.8-6.51-3.9-10.4-.07-2.98-.24-6.09,4.55-4.85,1.82.47,3.72-.31,4.38-2.44.69-2.23-.43-4.08-2.19-4.99-2.94-1.53-2.29-2.98-.7-5.06,3.34-4.38,7.41-7.36,13.09-7.64,2.32-.11,4.53.04,5.09,3.29Z"/>
    <path class="cls-3" d="M270.39,77.31c-.95,8.27-2.67,16.54-9.98,22.35-1,.79-2.07,2.04-3.43,1.47-1.54-.65-2.09-2.26-2.25-3.89-.31-3.21.46-6.25,1.57-9.22,1.74-4.66,3.45-9.36,6.36-13.46,1.31-1.84,2.42-4.73,5.27-3.75,2.64.9,2.28,3.81,2.46,6.51Z"/>
    <path class="cls-9" d="M158.54,170.02c.82.19,1.17.26,1.51.36,6.86,1.93,6.98,1.93,6.93,9.19-.08,11.27-.3,22.54-.63,33.8-.03,1.16,1.11,3.93-1.37,3.42-1.7-.35-4.84-.36-4.64-4.08.42-8.11.46-16.24.59-24.36.09-6.03-.13-12.04-2.38-18.32Z"/>
    <path class="cls-13" d="M149.11,170.59l.08-3.12c.25.06.51.05.75-.03,2.21.43,2.94,1.81,3.4,4,2.86,13.57,1.82,27.36,2.7,41.07-3.87-.49-3.94-.49-3.78-4.13.56-12.74-.35-25.35-3.16-37.8Z"/>
    <path class="cls-27" d="M246.6,136.07c-8.44-1.18-15.58,1.18-22.21,5.7,2.25-5.96,5.68-10.36,10.85-13.37,2.69-1.57,4.73-1.6,6.76,1.03,1.51,1.95,3.29,3.67,4.6,6.64Z"/>
    <path class="cls-17" d="M259.88,202.01c5.87-13.51,7.8-27.78,10.21-41.95,4.25,6.87-3.44,38.74-10.21,41.95Z"/>
    <path class="cls-16" d="M191.65,204.5c1.87,1.76,5.43.12,5.72,3.75.37,4.67-.77,5.93-6.44,7.64.23-3.66.46-7.29.72-11.38Z"/>
    <path class="cls-10" d="M187.77,169.56c.26.8.33,1.45-.66,1.9-2.12.98-4.15,2.17-6.31,3.06-1.76.72-3.22-.13-3.67-1.85-.52-1.98.69-2.52,2.5-2.09.34.08,1.06-.09,1.06-.13-.11-3.86,2.98-1.83,4.54-2.65,2.58-1.35,2.62-.18,2.53,1.75Z"/>
    <path class="cls-20" d="M196.83,127.9c-6.62,4.67-14.03,3.79-17.88-1.78,5.84.65,11.36,2.1,17.88,1.78Z"/>
    <path class="cls-7" d="M197.76,169.56c-.2,2.13-.56,3.93-.49,5.71.12,2.96-2.26,2.56-3.8,2.79-2.44.35-1-1.66-1.26-2.65-1.28-4.85,2.86-4.39,5.55-5.85Z"/>
    <path class="cls-11" d="M192.15,143.65c-.16-1.21.49-2.26,1.39-1.93,1.91.7,3.06.42,4.19-1.33.65-1,1.86-.76,2.69.2.25.29.64.66.62.97-.12,2.15,4.51.4,2.74,2.69-.92,1.19-4.65,1.2-6.53.39-1.75-.75-3.38-.85-5.1-.99Z"/>
    <path class="cls-7" d="M202.38,175.63c1.83-2.9-2.59-8.1,4.42-9.78-2.17,3.46,1.09,8.23-4.42,9.78Z"/>
    <path class="cls-28" d="M271.58,137.9c2.87,2.39,2.89,6.82,0,10.07v-10.07Z"/>
    <path class="cls-5" d="M247.96,82.4c-.84-.43-2.71.51-2.45-1.44.15-1.12.33-3.07,1.82-2.98,1.42.08,3.26,1,3.48,2.67.24,1.85-1.51,1.68-2.85,1.74Z"/>
    <path class="cls-11" d="M205.58,207.97c-.52,1.76-1.99,2.37-3.42,2.91-1.79.67-1.4-.84-1.59-1.74-.27-1.33-.18-2.43,1.6-2.12,1.15.2,2.61-.55,3.4.95Z"/>
    <path class="cls-12" d="M186.83,65.28c2.26-2.63,5.1-4.2,8.59-4.65-2.32,2.52-5.34,3.78-8.59,4.65Z"/>
    <path class="cls-18" d="M143.72,71.89c1.38-2.73,4.03-3.84,6.51-5.19-1.18,2.95-3.81,4.08-6.51,5.19Z"/>
    <path class="cls-2" d="M164.82,86.94c-1.5,2.61-4.28,3.25-6.87,4.23,1.74-2.2,3.98-3.67,6.87-4.23Z"/>
    <path class="cls-11" d="M171.88,140.34c-1.9-.42-3.34-1.21-2.8-3.55,2.69-.2,4.44.34,2.8,3.55Z"/>
    <path class="cls-6" d="M217.76,66.64c.06,1.53-.68,1.65-1.51,1.58-.96-.07-1.3-.78-1.33-1.58-.04-.85.35-1.54,1.34-1.46,1.09.09,1.46.89,1.5,1.45Z"/>
    <path class="cls-11" d="M41.37,202.67c-4.56,2.6-8.88,2.21-11.35-.77-2.06-2.48-1.86-7.32.43-10.25,2.46-3.14,7.01-4.23,10.61-2.55,3.7,1.73,5.26,6.79,3.37,10.47-.78,1.51-1.39,1.11-2.31.29-1.07-.96-2.15-1.91-3.33-2.72-1.09-.75-2.39-2.44-3.65-.78-1.31,1.71.65,2.41,1.75,3.21,1.37.99,2.78,1.93,4.48,3.1Z"/>
    <path class="cls-11" d="M28.02,181.77c-2.45,1.39-4.09,2.8-5.61,4.43-.69.73-.51,3.26-2.26,1.97-1.59-1.17-4.05-2.34-3.25-5.19.72-2.54,2.25-4.48,4.84-5.14,3.16-.8,3.87,2.43,6.28,3.93Z"/>
    <path class="cls-11" d="M53.8,180.4c-2.37-2.14-3.66-5.01-4.35-7.63-.57-2.15,2.8-2.41,4.36-3.57.5-.37,4.06,6.53,3.93,8.03-.21,2.29-2.65,1.74-3.94,3.17Z"/>
    <path class="cls-11" d="M26.4,194.51c-1.47-1.5-4-2.29-3.61-4.71.44-2.74,2.71-4.27,5.11-5.52,2.03-1.05,2.97.55,3.89,1.6,1.53,1.77-.81,1.69-1.44,2.24-1.95,1.69-2.82,3.98-3.94,6.38Z"/>
    <path class="cls-11" d="M50.71,180.69c-.11,1.42-1.35,1.41-2.24,1.81-.91.41-1.86,1.18-2.65-.26-.88-1.61-2.03-3.09-2.74-4.76-1.07-2.52,1.7-2.39,2.73-3.43,1.23-1.25,1.76.07,2.21.97.93,1.87,1.8,3.77,2.7,5.66Z"/>
    <path class="cls-11" d="M9.32,208.84c.11-3.05-5.22-3.74-1.87-7.01.88-.86,2.15-4.04,4.48-1.12,2.76,3.45,2.81,3.41-2.61,8.13Z"/>
    <path class="cls-11" d="M41.09,176.69c.09,3.72,4.34,5.36,1.76,7.98-2.28,2.31-3.53-.29-4.85-2.12-2.65-3.67,1.39-3.38,3.09-5.86Z"/>
    <path class="cls-11" d="M8.09,209.69c-.57,1.24-1.93,2.78-2.33,2.4-1.75-1.65-3.36-3.6-4.42-5.74-.42-.84,1.79-2.18,2.45-1.9,2.23.96,2.95,3.42,4.3,5.23Z"/>
    <path class="cls-11" d="M16.12,202.81c-.44-2.14-4.74-2.71-2.48-5.95.47-.68,1.8-2.92,3.29-1,1.81,2.33,3.38,4.94-.81,6.95Z"/>
    <path class="cls-1" d="M148.33,164.27c-1-.35-1.55.57-2.33.84-.12-.06-.23-.17-.35-.18-11.02-.85-12.83-7.26-9.52-16.55,2.8-7.85,9.28-11.88,17.25-13.23,7.56-1.29,12.71,2.95,17.02,8.45,2.41,3.07.72,7.7-3.08,8.51-1.5.32-3.14.12-1.95,2.43.04.08-.09.34-.14.34-3.14-.05-4.33,4.01-6.61,3.99-3.31-.02-5.47,1.01-7.51,3.27-.77.86-1.85,1.44-2.79,2.14Z"/>
    <path class="cls-13" d="M132.45,149.46c-.29-6.63,1.16-13.02,4.94-18.63,1.71-2.54,4.9-2.73,7.82-2.87,4.19-.21,7.82,1.34,11.79,3.6-11.96,1.43-20.2,6.91-24.55,17.89Z"/>
    <path class="cls-4" d="M206.53,259.31c-3.47-1.71-7.12-2.77-11.74-3.78,5.6-1.71,9.26-.4,11.74,3.78Z"/>
    <path class="cls-4" d="M141.45,244.79c-3.04-.42-5.73-.79-8.85-1.23,3.83-2.4,6.26-2.06,8.85,1.23Z"/>
    <path class="cls-4" d="M187.18,158.28c-.39-1.64-.97-2.31-.07-2.71.91-.41,1.47.21,1.93.88.15.21.25.46.33.71.44,1.52.23,3.06-1.05,3.92-2.48,1.67-5.3,2.78-8.33,2.39-1.67-.22-2.73-1.61-2.53-3.45.11-.98-.03-1.71-.59-2.53-1.02-1.5-.73-2.96.54-4.25,1.2-1.22,2.65-.94,4.05-.65.72.15,1.66.51,1.39,1.52-.21.78-.99.69-1.65.46-.98-.34-1.92-.27-2.31.77-.41,1.08.83,1.07,1.3,1.59.32.35.59.84.65,1.29.14,1.02-2.39,3.42.32,2.68,1.64-.45,6.34,1.1,6.03-2.61Z"/>
    <path class="cls-4" d="M192.47,166.48c-.97-.43-1.24-1.34-1.27-2.24-.06-1.77,1.14-2.57,2.67-2.79,1.06-.15,2.26.23,2.54,1.35.4,1.63-.72,1.57-1.89,1.31-2.09-.46-.21,2.55-2.04,2.37Z"/>
  </g>
  <g id="detalles">
    <circle class="cls-11" cx="144.25" cy="42.59" r="1.5"/>
    <circle class="cls-11" cx="166.75" cy="33.09" r="1"/>
    <circle class="cls-11" cx="170.25" cy="44.59" r="1.5"/>
    <circle class="cls-11" cx="216.75" cy="67.09" r="2"/>
    <circle class="cls-11" cx="189.75" cy="92.09" r="1"/>
    <circle class="cls-11" cx="173.25" cy="105.59" r="1.5"/>
    <path class="cls-11" d="M144.75,104.09s2.71,7.6,21.86,14.3,8.93-1.96,8.93-1.96c0,0-8.79.67-30.79-12.33Z"/>
    <path class="cls-4" d="M248.25,213.59c-3-1-3.43,0-3.43,0l-1.57,1s4.2-.07,4.6-.54l.4-.46Z"/>
    <path class="cls-4" d="M246.75,217.09c1-1,3-1,3-1,0,0-1,2-2,2h-1.83l.83-1Z"/>
    <path class="cls-4" d="M255.75,228.09c-.16,1.53-.94,2.72-2,3-.23.06-.56.1-1,0l3-3"/>
    <path class="cls-4" d="M241.75,297.09c.33,1,.67,2,1,3,0,0-1,0-2-1s0-3.56,0-3.56l1,1.56Z"/>
    <polyline class="cls-4" points="230.75 305.09 234.26 307.7 232.75 308.09 228.75 304.09 230.75 305.09"/>
    <path class="cls-4" d="M230.75,309.09s-3,0-4-2c0,0,0,2,1,3s3-1,3-1Z"/>
    <path class="cls-4" d="M125.75,294.09s-1.73-.02-2.87,1.49,1.23.36,1.23.36l1.63-1.85Z"/>
    <path class="cls-4" d="M125.75,301.09s2-1,3,0-1.19.89-1.19.89l-1.81-.66v-.22Z"/>
    <path class="cls-4" d="M113.75,280.09s-1.96,1.47-1.48,3.24,1.48-1.24,1.48-1.24v-2"/>
    <path class="cls-4" d="M115.75,213.09c2,2,1,3,1,3l-2-2,1-1Z"/>
    <polyline class="cls-4" points="113.75 218.09 111.75 218.09 111.75 220.09 113.75 220.09 113.75 218.09"/>
    <path class="cls-4" d="M108.75,222.09s-2,1,0,2,3,0,3,0l-3-2Z"/>
    <polygon class="cls-11" points="106.75 226.09 105.75 228.09 107.75 230.09 108.75 228.09 106.75 226.09"/>
    <path class="cls-11" d="M239.28,308.73l-2.56,2.38,1.28.69,1.01-1.03s-.15-.78.79-1.23l.94-.45-1.39-.35h-.08Z"/>
    <polygon class="cls-30" points="32.49 70.09 30.27 69.7 28.7 71.31 28.38 69.08 26.36 68.08 28.38 67.09 28.71 64.86 30.28 66.47 32.5 66.1 31.45 68.09 32.49 70.09"/>
    <polygon class="cls-30" points="63.97 109.94 65.83 107.28 64.69 104.24 67.79 105.19 70.33 103.17 70.39 106.41 73.09 108.2 70.03 109.26 69.17 112.38 67.21 109.79 63.97 109.94"/>
    <polygon class="cls-30" points="26.23 144.62 29.13 146.78 32.55 145.61 31.4 149.04 33.56 151.93 29.95 151.89 27.87 154.85 26.79 151.4 23.33 150.33 26.28 148.23 26.23 144.62"/>
    <polygon class="cls-30" points="316.64 30.31 316.32 34 319.19 36.36 315.58 37.2 314.22 40.65 312.31 37.47 308.6 37.25 311.03 34.45 310.1 30.86 313.51 32.3 316.64 30.31"/>
    <polygon class="cls-30" points="327.64 150.83 329.41 152 331.38 151.2 330.81 153.25 332.18 154.87 330.06 154.96 328.93 156.76 328.19 154.78 326.13 154.26 327.79 152.94 327.64 150.83"/>
    <polygon class="cls-30" points="294.27 221.05 296.63 223.61 300.08 223.12 298.37 226.16 299.91 229.29 296.49 228.6 293.99 231.03 293.58 227.57 290.5 225.94 293.67 224.48 294.27 221.05"/>
    <polygon class="cls-30" points="220.86 335.42 221.56 341.49 226.95 344.37 221.39 346.9 220.33 352.93 216.19 348.42 210.14 349.27 213.15 343.94 210.47 338.45 216.46 339.67 220.86 335.42"/>
    <polygon class="cls-30" points="244.56 359.27 245.5 360.89 247.37 361.04 246.12 362.43 246.55 364.25 244.84 363.49 243.25 364.47 243.44 362.61 242.02 361.39 243.85 361 244.56 359.27"/>
    <polygon class="cls-30" points="337.6 291.86 338.64 293.74 340.77 293.95 339.31 295.51 339.76 297.61 337.82 296.7 335.98 297.78 336.24 295.65 334.64 294.23 336.74 293.83 337.6 291.86"/>
    <polygon class="cls-30" points="121.9 334.83 125 336.08 127.79 334.24 127.56 337.57 130.17 339.66 126.93 340.46 125.75 343.6 123.98 340.76 120.64 340.61 122.79 338.05 121.9 334.83"/>
    <ellipse class="cls-30" cx="21.25" cy="263.09" rx="3" ry="2.5"/>
    <circle class="cls-30" cx="43.25" cy="338.59" r="3"/>
    <ellipse class="cls-30" cx="278.75" cy="338.09" rx="3.5" ry="2.5"/>
    <ellipse class="cls-30" cx="334.75" cy="257.09" rx="7.5" ry="6.5"/>
    <path class="cls-14" d="M322.77,328.31c3.82-.12,7.37.86,10.09,3.56,1.46,1.45,2.47,1.23,4.03.43,2.73-1.4,5.7-1.97,8.78-1.49,2.85.44,5.35,1.51,6.27,4.58.91,3.05-.46,5.33-2.65,7.29-2.3,2.06-5.11,3.18-7.94,4.19-1.47.53-2.57,1.1-2.81,2.82-1.74,12.5-19.26,15.98-27.36,9.45-2.08-1.68-3.82-1.68-6.05-.8-1.7.67-3.49,1.18-5.28,1.49-2.43.42-4.89.24-6.17-2.27-1.18-2.31.02-4.3,1.51-6.08,1.97-2.35,4.38-4.17,7.13-5.44,1.62-.75,2.24-1.8,2.62-3.5,2.09-9.5,8.04-14.17,17.85-14.22Z"/>
    <path class="cls-11" d="M306.15,346.88c1.03-12.97,9.48-18.64,21.21-16.05,4.63,1.02,6.99,4.83,8.54,9.04.72,1.94.11,3.47-2.02,4.18-8.07,2.68-16.14,5.35-24.19,8.1-1.71.58-2.45-.1-2.8-1.62-.31-1.4-.57-2.81-.74-3.65Z"/>
    <path class="cls-11" d="M336.72,348.49c-.32,10.79-17.69,15.92-25.61,8.09,4.41-1.38,8.53-2.67,12.65-3.97,4.21-1.33,8.41-2.67,12.96-4.12Z"/>
    <path class="cls-11" d="M328.12,348.02c4.27-1.63,8.62-3.06,12.77-4.95,2.58-1.18,6.56-2.45,5.34-6.06-1.13-3.33-4.9-1.73-7.66-1.57-.84.05-1.63,1.05-2.51.13,2.7-3.63,10.45-4.48,13.42-1.39,2.08,2.17,1.3,4.37-.42,6.27-1.97,2.18-4.59,3.47-7.32,4.4-4.19,1.44-8.43,2.7-12.66,4.04-.91.36-1.07-.09-.95-.86Z"/>
    <path class="cls-11" d="M313.06,354.08c-3.73,1.18-7.44,2.41-11.19,3.52-2.23.66-4.97,1.78-6.42-.75-1.48-2.57,1.01-4.16,2.72-5.71.85-.16,1.13.21.94,1.01-.39,3.84,2.33,3.63,4.66,3.27,2.83-.44,5.59-1.36,8.37-2.07.77-.34,1,0,.91.73Z"/>
    <path class="cls-11" d="M344.8,337.57c-1,2.34-3.03,3.41-5.07,4.04-2.27.7-1.93-1.79-2.12-2.78-.58-2.94,2.09-1.74,3.4-2.17,1.34-.44,2.75-.45,3.8.91Z"/>
    <path class="cls-8" d="M304.38,349.6c.08,1.43,2.71,2.71.28,3.88-1.05.51-3.16,1.01-3.51-.27-.5-1.87,1.91-2.41,3.23-3.61Z"/>
    <path class="cls-11" d="M299.11,352.15l-.94-1.01c1.64-1.82,3.63-3.09,6.17-3.6-1.74,1.54-3.48,3.08-5.23,4.62Z"/>
    <polygon class="cls-11" points="313.06 354.08 329.44 348.77 329.26 347.59 312.14 353.35 312.75 354.09 313.06 354.08"/>
    <path class="cls-11" d="M299.15,353.73s.1-1.09.85-2.37-.25-.28-.25-.28l-2,1,1,2,.4-.35Z"/>
    <path class="cls-11" d="M295,355.7s-.19-2.27,5.28-6.44l.47.83-5.75,5.61Z"/>
    <path class="cls-11" d="M300.28,349.26l3.47-2.17s1.17-.1.58.45-.99.87-.99.87l-3.07.85Z"/>
  </g>
</svg>