<?xml version="1.0" encoding="UTF-8"?>
<svg id="Capa_2" data-name="Capa 2" xmlns="http://www.w3.org/2000/svg" viewBox="0 0 342.7 355.82">
  <defs>
    <style>
      .cls-1 {
        fill: #fefefe;
      }

      .cls-1, .cls-2, .cls-3, .cls-4, .cls-5, .cls-6, .cls-7, .cls-8, .cls-9, .cls-10, .cls-11, .cls-12, .cls-13, .cls-14, .cls-15, .cls-16, .cls-17, .cls-18, .cls-19, .cls-20, .cls-21, .cls-22, .cls-23, .cls-24, .cls-25, .cls-26, .cls-27, .cls-28, .cls-29, .cls-30 {
        stroke-width: 0px;
      }

      .cls-2 {
        fill: #f3f3f3;
      }

      .cls-3 {
        fill: #f4f3f4;
      }

      .cls-4 {
        fill: #222;
      }

      .cls-5 {
        fill: #060606;
      }

      .cls-6 {
        fill: #d6d5d7;
      }

      .cls-7 {
        fill: #1a181a;
      }

      .cls-8 {
        fill: #f7f7f7;
      }

      .cls-10 {
        fill: #e3e3e3;
      }

      .cls-11 {
        fill: #0f0f0f;
      }

      .cls-12 {
        fill: #f0f0f0;
      }

      .cls-13 {
        fill: #232323;
      }

      .cls-14 {
        fill: #0d0d0d;
      }

      .cls-15 {
        fill: #f7f6f7;
      }

      .cls-16 {
        fill: #f6f6f6;
      }

      .cls-17 {
        fill: #fff;
      }

      .cls-18 {
        fill: #202020;
      }

      .cls-19 {
        fill: #ededed;
      }

      .cls-20 {
        fill: #fafafa;
      }

      .cls-21 {
        fill: #2c2a2d;
      }

      .cls-22 {
        fill: #eee;
      }

      .cls-23 {
        fill: #f9f9f9;
      }

      .cls-24 {
        fill: #fbfbfb;
      }

      .cls-25 {
        fill: #fdfdfd;
      }

      .cls-26 {
        fill: #292929;
      }

      .cls-27 {
        fill: #0a0a0a;
      }

      .cls-28 {
        fill: #fcfcfc;
      }

      .cls-29 {
        fill: #070707;
      }

      .cls-30 {
        fill: #111;
      }
    </style>
  </defs>
  <g id="Astronauta_3" data-name="Astronauta 3">
    <g>
      <path class="cls-9" d="M113.58,313.65c-3.46-.22-2.48,3.52-4.76,4.7,2.5.79,4.88-.52,7.81,1.94-3.34,0-5.6,0-7.86,0-4.35-.02-8.9-.83-12.99.19-3.06.77-5.93,1.29-8.99,1.06-.85-.06-2.7.11-.73-1.51.23-.19,0-.39-1.36-.7-3.23-.74-7.18-.52-7.01-5.66.05-1.51-1.39-.78-2.14-.61-4.55,1-9.54.58-13.09,4.7-.88,1.02-2.92,1.01-4.39,1.57-1.57.6-3.03,1.7-2.82,3.42.21,1.69,1.49,2.48,3.47,2.96,2.68.65,5.36.34,8.19.74-2.84,2.44-8.65,2.01-12.28-.73-3.06-2.31-14.02-2.26-16.79.26-1.9,1.74-2.61,3.43-.44,6.06,1.92,2.33,3.64,4.41,7.29,4.56-2.67,3.02-5.53-.63-7.82,1.69-2.75,2.79-1.07,4.27,2.05,6.1-2.79.73-3.93-.13-4.79-1.7.26-1.31-1.76-1.38-1.47-2.71.91-.29,1.63-.82,2.23-2.06-8.09-.72-14.06-4.88-18.49-11.4-4.25-6.27-7.16-13.05-7.57-20.73.13-4.23.06-8.46.05-12.68.44-7.18,3.34-13.47,7.05-19.47,6.13-9.92,11.64-20.1,13.75-31.76,1.68-9.27.52-18.2-3.56-26.63-3.44-7.12-7.69-13.87-10.81-21.12-7.87-18.34-8.99-36.89.87-54.89,6.15-11.23,16.66-17.78,27.94-23.06,13.7-6.42,28.29-10.09,42.97-13.38,19.47-4.37,35.78-13.74,46.38-31.05,10.15-16.59,24.45-25.38,43.86-25.95,1.18-.03,2.35-.29,3.53-.44.82,1.21,1.87,2.26,2.56,3.56-.8.7-1.74.7-2.71.56-2.54-.69-3.75.47-4.02,2.92-.46,2.19-1.63,4.09-2.66,6.03-1.05,1.98-.52,2.95,1.51,3.83,1.97.86,4.85.37,5.63,3.31-.63,1.17-1.68,1.74-2.89,2.08-2.08.35-3.99-.34-5.66-1.35-3.29-2-5.46-.75-7.28,2.04-3.23,4.98-6.34,10.03-8.97,15.36-1.16,2.37-2.29,4.75-3.52,7.08-1.42,2.69-.8,4.26,2.09,5.49,8.23,3.5,16.86,5.11,25.66,6.18,9.59,1.17,19.22.68,28.83.77,5.41.05,5.41,0,6.9-5.05,2.36-.56,1.79,1.4,2.12,2.53.33,1.09-.44,2.84,1.74,2.75,9.33-.91,18.62-1.96,27.2-6.13,4.42-2.15,4.66-2.73,2.62-7.26-3.42-7.58-7.61-14.73-12.07-21.73-1.73-2.71-3.67-3.71-6.9-1.99-3.1,1.66-6.4,3.16-10.12,2.93-.99-.24-2.01-.44-2.88-1.03-.46-.31-.5-.68-.4-1.27.07-.44,2.27.04.45-1.01,1.44-2.41,4.13-2,6.29-2.72,5.55-1.84,5.99-2.74,3.23-7.77-3.03-5.52-4.4-6.1-10.48-4.77-2.94.65-5.86,1.71-8.97,1.07-6.02-.57-12.03-.43-18.05-.06-.96.01-1.87-.06-2.16-1.22.3-.94,1.01-1.43,1.89-1.73,5.62-.47,11.25-.46,16.87,0,.1,0,.26-.03.28-.08.04-.12,0-.26,0-.4,1.9-2.07,4.63-1.22,6.91-1.96,1.6-.52,3.42-.55,3.84-2.68.35-1.88,1.49-2.18,3.1-1.55,1.07,1.92,1.98,3.84,4.53,4.45,1.13.27,2.38,1.46,2.89,2.56,1.92,4.07,5.62,5.56,9.35,7.29,31.33,14.53,48.93,39.81,56.81,72.71,2.9,12.12,3.39,24.55,5.02,36.83,3.37,25.31,12.59,48.67,23.81,71.37,5.43,10.99,10.96,21.93,15.11,33.52,6.95,19.4,5.49,38.06-3.97,56.25-4.03,7.76-8.87,14.97-14.15,21.91-4.55,5.98-11.21,4.94-17.44,4.9-3.14-.02-6.42.17-9.19-2.16-1.13-.94-2.64-.11-4.05.53-4.02,1.84-8.14,3.51-12.95,2.11,3.27-.89,6.59-1.61,9.76-2.76.99-.35,3.85.11,2.58-2.41-.94-1.86-1.81-4.92-5.15-3.14-1.33.71-2.77,1.32-4.16.97-6.12-1.56-11.96-.52-17.73,1.56-.83-.47-2.07.21-2.65-.95,6.49-2.03,12.86-4.67,19.94-2.25,2.24.76,4.69-.09,5.42-2.7.71-2.56-2.02-2.96-3.3-4.31-4.22-4.44-9.83-5.94-15.38-7.65-.94-.29-1.78-1.13-2.51-1.87-3.2-3.26-7.42-4.15-11.94-2.44-4.77,1.81-9.41.7-13.01-2.99-.5-.51-1.39-.63-2.1-.94.38-.8,1.2-.9,1.89-1.21.71-.43.82-1.1.34-1.64-.42-.46-1.24-.56-1.65-1.02-5.62-6.33-12.51-8.33-20.73-6.53-1.74.38-3.7.03-5.51-.29-5.3-.92-10.19.03-14.84,2.7-2.72,1.57-5.59,2.88-8.47,4.34,2.1,1.15,4.81,1.23,5.7,4.33-8.91-1.81-16.85-7.37-26.26-5.46-1.61.56-2.83.16-3.56-1.45.76-2.43.32-4.48-1.42-6.48-4.66-5.35-6.13-11.94-6.92-18.76.39-2.1.73-4.22,2.65-5.6.78-1.72,3.03-2.33,3.3-4.44.49-.82,1.1-1.49,2.1-1.66,2.7,2.66,6.17,4.13,9.42,5.92.41,1.29,1.65,1.07,2.58,1.42,1.11.42,2.31.75,2.12,2.35-.46,1.33-.65,2.73-1.3,4.01-.38.76-.85,1.9.44,2.24,1.14.3,1.44-.84,1.79-1.65.48-1.12.7-2.24-.44-3.16-.73-.6-.9-1.23-.01-1.87,2.72-.91,5.24-.69,7.43,1.33.02,1.95-2.24,2.42-2.66,4.11-.27,1.07-1.61,2.12-.48,3.2.91.87,2.2.72,3.31.05.34-.2.69-.38,1.08-.46,1.05.23,1.57,1.4,2.7,1.5,3.12,1.64,5.08-.57,7.22-2.18q1.52,4.63,4.91,2.85c.36-1.67.6-3.32-.41-5.18-2.13,1.48-.33,4.51-2.42,5.77-3.32-4.31-1.91-8.43,3.05-9.37,2.68-.51,5.24.07,7.82.36,3.34.37,3.01,3.05,3.03,5.42,0,.09.14.24.23.26.11.02.24-.08.38-.13,2.3,2,4.8,2.79,7.71,1.4q1.17.7,1.54-1.22c1.9-.44,4.71,1.18,5.56-1.42.9-2.75-1.87-3.64-3.74-4.77.02-3.14,3.68-2.08,4.69-4.08.08-.11.14-.29.24-.31,6.28-1.48,10.37-5.6,13.37-11.04,1.68.28,2.53-1.66,4.15-1.57,4.6,1.87,4.75,1.74,7.46-2.01,5.62-7.79,9.91-16.48,16.25-23.77,1.26-1.45,1.19-2.76-.4-4.03-3.69-2.96-7.11-6.25-10.83-9.19-1.59-1.26-3.09-1.72-4.98-1.23-.98-.78-1.67-1.76-2.02-2.96-.33-1.9.35-3.65.8-5.43,3.14-12.53,6.4-25.03,8.49-37.8.32-1.95.83-3.87.55-5.87-.34-1.4,1.29-2.35.87-3.77.79-3.13,1.19-6.32,1.54-9.52.15-1.38-.05-2.88,1.29-3.86.31-.08.56-.02.61.2.09.39.27.35.21-.1-.79-6.09-.88-12.17.04-18.26.04-.29-.4.45-.77.2-1.44-.98-1.22-2.52-1.37-3.93-1.48-13.4-4.54-26.41-9.16-39.09-1.19-3.27-2.76-2.15-4.78-1.09-8.16,4.29-16.88,6.48-26.12,6.53-12.07-.52-24.14-.67-36.2.1-4.07.5-8.04-.13-11.95-1.18-1.06.07.7-1.63-.85-1.32-1.52.3-2.88,1.19-4.49,1.16-6.28-1.98-12.8-3.22-18.72-6.26-2.05-1.05-2.88.07-3.48,1.79-3.32,9.48-6,19.12-7.74,29.02-.36,2.04.52,2.94,2.36,3.33,4.82,1.03,9.28,2.99,13.57,5.35,1.78.98,3.18,1.33,3.85-1.19.2-.76.64-1.47,1.62-1.47,1.69,1.17,1.68,3.12,2.22,4.82-.26,2.15.66,3.67,2.21,5.15,3.09,2.96,6.43,5.74,8.44,9.78-2.65-11.64,1.05-21.1,9.73-28.84,2.07-1.84,4.26-3.55,7.14-3.99q3.3,1.26.63,4.59c-3.46,3.38-7.45,6.17-9.88,10.6-3.33,6.07-4.35,12.34-3.05,19.08.76,3.96,2.84,7,6.05,9.4,1.56,1.17,3.45,1.99,4.47,3.81.3,1.46,1.25,3.19-1.42,3.41-3.15-.45-5.28-2.62-7.57-4.51,6.01,15.23,2.57,32.88-8.48,43.55-5.45,5.04-11.71,8.83-18.61,11.48-2.89,1.11-2.13,3.12-1.83,5.16-.23.99-.87,1.63-1.75,2.07-1.54.42-2.41-1.39-3.88-1.16-.94.41-1.65,1.64-2.94.87-1.51-1.59-3.11-2.68-5.54-2.17-10.01,2.1-20.18,1.82-30.32,1.79-4.67-.01-5.45.56-6.57,5.06-.98,3.97-1.51,8.03-1.95,12.09-.24,1.74-2.59,2.88-1.41,5.03.39,1.98.15,4.08,1.24,5.91.18.55.18,1.09-.03,1.63-1.54,1.18-1.69,2.86-1.62,4.6-1.3.72.53,1.83-.31,2.62-1.03,2.58-1.49,5.32-2.24,7.97-.83,2.94.39,4.66,3.2,5.16,6.5,1.16,12.88,2.15,18.78-2.52,4.28-3.39,12.26-1.47,15.56,3.21.24.83.14,1.66-.02,2.49.98,9.14,3.67,17.88,6.22,26.66.64,2.2,2.85,3,3.92,4.78-.96,2-2.68,1.79-4.42,1.55-2.15-1.71-3.8-4.31-7.1-3.92.48-.6,1.15-.52,1.8-.47-6.32-.6-12.64-1.5-19-.55Z"/>
      <path class="cls-9" d="M183.37,48.74c-1.63-.54-1.97-2.04-2.52-3.39,2.11-4.85,3.13-10.58,9.69-11.79,1.14-.21,1.12-1.42,1.32-2.22,1.71-6.63,3.25-13.31,5.04-19.92.52-1.92.09-2.88-1.63-3.73-1.67-.83-3.29-2.05-2.79-4.24.53-2.29,2.49-2.82,4.56-3.11,3.43-.48,6.84-.48,10.23.19,1.65.33,3.03,1.14,3.43,2.86.42,1.81-.67,3.29-2.12,3.85-3.17,1.22-2.62,3.29-1.94,5.71,1.27,4.57,2.46,9.16,3.54,13.77.82,3.5,1.02,6.86,5.72,8.12,2.76.74,4.03,4.29,4.92,7.26-.37,1.26-2.26-.73-2.36,1.1-.72-.04-1.36-.4-1.59-1-1.84-4.73-5.07-4.84-9.54-3.82-4.3.98-8.87.41-13.32-.38-4.54-.8-7.55,1.55-8.43,6.07-.3,1.54.35,2.15,1.66,2.58,1.44.46,3.26.01,4.22,1.68-.04,1.18-1.35.56-1.75,1.23-.62.31-1.24.62-1.85.94-2.1.96-3.52.16-4.5-1.76Z"/>
      <path class="cls-9" d="M193.36,327.6c11.06,1.86,20.94-2.53,30.87.25-1.56,2.29-4.18,2.16-6.5,1.7-4.78-.93-9.4-.29-14.08.54-3.35.59-6.63.52-10.29-2.49Z"/>
      <path class="cls-9" d="M137.36,327.2c-4.74-.1-9.49-.1-14.22-.33-3.88-.19-5-1.75-3.71-5.85.54,4.23,3.21,3.79,5.7,3.82,6.03.07,12.1-.3,17.99,1.45-1.75,1.36-3.97-.2-5.76.92Z"/>
      <path class="cls-9" d="M238.25,321.32c-.35.85-1.09,1.08-1.89,1.21-6.56-.46-13.12-1.15-19.67.37,6.97-3.85,14.18-3.98,21.56-1.58Z"/>
      <path class="cls-9" d="M32.65,339.98c.68.8,1.83,1.35,1.47,2.71-2.12-1.45-8.63-.43-9.86,1.49-.71,1.1-.03,1.62.68,2.27.78.71,2.09,1.01,2.25,2.24-.3.28-.46.47-.48.45-1.9-1.3-5.6-1.03-5.24-4.32.37-3.37,3.54-4.26,6.47-4.71,1.54-.24,3.14-.1,4.71-.13Z"/>
      <path class="cls-9" d="M163.53,316.05c.79,1.16,2.29.95,3.29,1.7.51,1.2,2.05.44,2.68,1.41-1.07,1.4-2.44.58-3.72.5-.44-.05-.88-.14-1.31-.27-7.98-.3-15.96-1.26-23.95-.1-.96.06-1.91.06-2.64-.71,1.48-.38,3.03-.57,4.23-1.67,1.1-1.19,2.58-1.1,4-1.17,5.21-.26,10.43.44,15.63-.35.66-.1,1.28.19,1.78.65Z"/>
      <path class="cls-9" d="M194.58,321.64c7.21-.72,13.51-1.35,19.72.25-1.76,1.99-14.05,2.12-19.72-.25Z"/>
      <path class="cls-9" d="M140.52,319.29c5.46-2.97,11.33-1.64,16.97-1.17,2.47.21,5.31-.6,7.61,1.15-8.04.71-16.08.54-24.13.09l-.25.1-.21-.17Z"/>
      <path class="cls-9" d="M260.46,338.4c0,.53-.06,1.18-.65,1.24-.42.05-1.05-.23-1.31-.57-1.58-2.1-3.02-4.31-5.18-5.91-.28-.21-.29-.96-.21-1.42.04-.2.62-.44.95-.44,1.67.01,6.43,5.34,6.4,7.1Z"/>
      <path class="cls-29" d="M113.58,313.65c4.61-1.54,9.36-.78,13.98-.44,2.41.17,4.93.24,8.1.88-2.12.25-3.51.42-4.89.58-5.69-1-11.48-.49-17.2-1.02Z"/>
      <path class="cls-9" d="M140.98,319.36c8.04-.03,16.08-.06,24.13-.09,0,0,.03.03.03.03.25.17.34.34.25.5-.09.16-.17.24-.26.24-6.64-.02-13.28,0-19.92-.07-1.41-.02-2.81-.39-4.22-.6Z"/>
      <path class="cls-29" d="M8.88,293.12c1.16,4.23,1.24,8.46-.05,12.68-.79-4.23-.78-8.46.05-12.68Z"/>
      <path class="cls-9" d="M63.83,318.89c2.81.9,5.71,1.08,8.75,1.34-2.45,2.41-5.58,1.99-8.75-1.34Z"/>
      <path class="cls-30" d="M259.25,347.68c.87.36,2.02-.07,2.65.95-3.03.96-6.05.96-9.04.07-.02-.34-.04-.68-.06-1.02h6.45Z"/>
      <path class="cls-9" d="M98.92,325.14c-3.07.53-6.14,1.23-9.58-.98,3.72-.33,6.71-.2,9.58.98Z"/>
      <path class="cls-9" d="M229.84,328.25c-.83-.12-2.46.11-2.14-.9.64-2,3-.57,4.42-1.47.59-.37,1.45.33,1.14,1.02-.64,1.43-2.11,1.32-3.43,1.35Z"/>
      <path class="cls-9" d="M247.66,349.15c-1.47-1.07-2.4-2.33-2.35-4.55,2.03,1.23,2.67,2.68,2.35,4.55Z"/>
      <path class="cls-9" d="M272.68,354.38c-2.44,1.72-4.03,1.78-6.21.77,1.88-1.4,3.52-1.29,6.21-.77Z"/>
      <path class="cls-27" d="M137.36,327.2c1.7-1.67,3.91-.21,5.76-.92.72.12,1.55-.08,2.17.97-2.72.72-5.33.36-7.94-.05Z"/>
      <path class="cls-9" d="M44.4,334.58c2.79,1.05,3.22,2.41,3.25,3.97,0,.15-.72.52-.86.43-1.24-.85-1.25-2.31-2.39-4.4Z"/>
      <path class="cls-9" d="M32.15,352.15c-2.34-.87-3.21-1.99-4.5-3.93,2.57.54,3.63,1.48,4.5,3.93Z"/>
      <path class="cls-21" d="M165.12,320.04c0-.25,0-.5.01-.74,1.46-.05,2.91-.09,4.37-.14,1.1,1.1.44,1.57-.68,1.51-1.24-.06-2.47-.41-3.7-.63Z"/>
      <path class="cls-9" d="M275.03,337.8c2.32.52,2.36,1.89,3.44,3.82-2.79-.77-2.94-2.06-3.44-3.82Z"/>
      <path class="cls-1" d="M192.1,124.95c-14.72,6.84-18.93,18.9-16.73,34.26-3.34-4.74-6.64-9.14-11.03-12.53-1.74-1.34-.69-2.84-.79-4.29-.72-5.39,1.32-10.33,2.54-15.39,1.51-6.24,3.59-12.33,5.47-18.48.47-1.53.78-4.01,3.59-2.48,4,1.11,8.11,1.17,12.22,1.31,3.65-.54,7.34-.43,10.97-.19,7.46.5,14.9.19,22.35-.05,1.29-.04,2.62-.23,3.9.24,9.58-.61,18.77-2.7,26.98-7.88,2.35-1.48,3.09-.89,3.91,1.48,4.72,13.58,8.44,27.38,9.66,41.77.09,1.04.39,2.06.59,3.08.87,5.9.89,11.81-.01,17.71-.51,3.59-1.05,7.17-1.52,10.76-.19,1.43-.23,2.88-1.72,3.68-2.79,2.56-6.55,2.56-9.87,3.69-4.43,1.51-5.22,2.26-5.39,7.01-.51,14.68-3.3,29.01-6.48,43.29-.89,4.01-2.92,6.16-7.01,6.81-14.52,2.32-29.13,2.72-43.77,2.14-5.08-.2-5.68-1.31-4.84-6.43.13-.79.37-1.62.07-2.34-1.6-3.77-2.7-7.49-1.55-11.73.5-1.82-.93-2.54-2.73-1.29-3.56,2.46-3.58,2.43-6.11-1.34-.6-.89-1.37-1.6-2.28-2.16-.57-.39-1.06-.82-1-1.6,12.87-13.38,13.33-28.94,7.65-46.15,3.35,3,6.05,5.77,9.76,7.07,3.76-.08,7.02,2.04,10.75,2.3,7.61.53,14.99.09,21.85-3.67,16.47-10.71,16.53-33.44.11-45.03-7.5-5.29-15.84-5.73-24.51-4.29-1.67.28-3.28.96-5.02.72Z"/>
      <path class="cls-25" d="M179.27,190.57c-3.14,18.1-15.31,27.62-31.71,32.69-18.74,5.8-37.87,7.14-57.01,2.26-22.78-5.81-32.25-20.99-29.59-44.89,2.15-19.28,13.8-32.29,31.88-38.73,15.54-5.53,31.68-6.74,47.95-2.91,20.52,4.83,34.6,20.13,37.74,40.98.15,1.03.49,2.03.74,3.04.82,2.51.82,5.03,0,7.54Z"/>
      <path class="cls-1" d="M216.69,97.96c.18,6.42.18,6.47-6.5,6.43-14.9-.09-29.84.24-44.48-3.36-4.76-1.17-9.24-3.07-13.76-4.89-1.85-.75-1.87-1.64-1.16-3.28,3.79-8.73,8.35-17.05,13.54-25.01,2.89-4.43,3.9-4.53,8.61-2.5,1.79.77,3.77,1.12,5.67,1.67,10.05,1.48,20.14,2.24,30.3,2.16,2.19-.02,3.86,1.28,4.42,3.37,2.1,7.88,3.95,15.82,4.08,24.05,0,.53-.33.99-.72,1.37Z"/>
      <path class="cls-9" d="M172.45,214.65c3.68.46,3.74,3.83,4.92,6.44,2.04-1.69,3.22-5.58,6.23-3.83,2.94,1.71,1.24,4.98.37,7.53-.35,1.02-.36,1.73.32,2.51,3.19,3.64,2.56,7.5.33,11.79,10.18,1.23,20.13.84,30.06.49,6.99-.24,13.95-.91,20.83-2.27,2.06-.41,3.04-1.22,3.57-3.41,3.75-15.42,6.48-31,7.19-46.87.16-3.56,1.43-5.56,5.1-6.23,3.75-.68,7.4-1.87,11.1-2.83,1.4,1.19-.56,1.58-.57,2.44-1.33,2.71-4.16,2.59-6.47,3.16-3.52.87-5.11,2.43-5.4,6.42-1.04,13.85-3.95,27.43-6.96,40.97-.19.87-.71,1.73-.15,2.81,3.56.15,6.16-2.61,9.45-3.32,1.15.42,1.55,1.34,1.64,2.47,1.28,1.63.44,3.31-.02,4.87-2.1,7.18-3.88,14.45-6.29,21.53-.75,2.19-.96,4.16.1,6.42,1.31,2.8,1.12,5.61-1.86,7.53-.89.83-1.11,3.11-3.14,1.44-.85-1.35.02-2.52.38-3.76.9-3.17.01-4.14-3.29-3.53-1.3.24-2.56.63-3.84.98-11.28,3.1-22.81,4.75-34.45,4.27-12.76-.53-25.6-.99-38.05-4.43-1.21-.34-2.68-1.14-3.65.22-.77,1.08.18,2.24.55,3.35.86,2.53,3.36,4.55,2.36,7.65-.52.58-1.05,1.16-1.57,1.74-.13-.02-.25-.04-.38-.06-1.66-.23-1.94-3.35-3.38-2.5-1.81,1.07.01,3.27-.05,4.99-.03.75.02,1.55.41,2.26-1.37,1.32-1.16,3.35-2.17,4.83-1.97-4.56-5.3-4.58-9.53-3.37-3.68,1.05-7.59.71-11.38-.09-1.42-.3-2.9-.5-3.7-1.96.27-.64.55-1.29.82-1.93,1.33-1,2.78-.46,4.2-.34,4.22.36,8.43.54,12.57-.69,2.31-.68,3.07-2.01,2.72-4.43-1.15-8.09-1.19-8.07-8.92-6.38-13.7,2.98-27.44,3.62-41.15,0-1.73-.46-3.74-.57-4.55-2.67.24-.67-2.03-1.83.4-2.07,1.63-1.24,3.26-.39,4.86.06,2.9.8,5.82,1.53,8.82,1.89.76.09,1.75.09,1.86-.92.11-.99-.82-1.23-1.58-1.37-2.83-.53-5.68-.97-8.45-1.77-1.59-.46-3.42-.63-4.18-2.51,0-.5,0-.99,0-1.49,1.74-1.75,3.72-.81,5.59-.41,13.04,2.76,25.98,2.28,38.84-1.05,1.02-.27,2.03-.58,3-1.03,1.54-.71,2.14-1.92,1.76-3.55-.47-1.98-1.96-1.44-3.18-1.09-4.17,1.22-7.78.5-10.97-2.57-1.59-1.53-3.72-1.93-5.89-1.96-3.7-.06-7.4-.02-11.1-.02-2.21,0-4.16.66-5.83,2.11-2.86,2.5-6.05,3.7-9.87,2.62-1.34-.38-2.61.11-3.87.5-2.18-2.49.02-3.16,1.68-4.05,4.59-.19,8.38-2.56,12.52-4.13,6.88-2.6,14.49-1.96,21.78-.32,1.31.29,2.25,1.33,3.27,2.16,1.14.93,2.36,1.66,3.86,1.84,5.23.62,6.7-1.09,5.92-6.18-.55-3.55-2.77-6.89-1.52-10.69.54-.81,1.09-1.62,1.63-2.42,1.58,1.29,2.02,3.26,2.89,5.04.97-.77.92-1.82,1.06-2.79.55-.49,1.09-.99,1.64-1.48,1.29-.51,2.25.3,3.29.81,4.06,2,7.27,1.05,9.54-2.98.9-1.61,1.71-3.25,3.2-4.41,1.63-1.27,1.16-3.05,1.21-4.72.09-2.47.45-4.77,3.52-5.26Z"/>
      <path class="cls-1" d="M162.81,279.46c-1.47-3.08-2.97-6.15-4.39-9.26-.5-1.1-.62-2.29.27-3.35.81-.97,1.72-.87,2.84-.54,16.41,4.83,33.23,5.5,50.17,4.92,9.43-.32,18.56-2.28,27.58-4.91,1.65-.48,3.49-1.57,5.06.32,1.52,1.83.3,3.48-.34,5.16-.37.98-.81,1.93-1.22,2.89-2.44,6.89-7.6,10.46-14.52,11.87-6.51,3.45-13.59,3.98-20.72,3.65-4.09-.19-8.15.06-12.21.16-7.33.2-14.23-1.98-21.26-3.43-.64-.13-1.14-.64-1.61-1.11-3.62-1.52-7.87-2.1-9.66-6.39Z"/>
      <path class="cls-1" d="M280.69,260.98c-.17,5.38-1.88,10.36-4.06,15.19-6.85,15.15-14.83,29.73-22.83,44.29-2.02,3.68-7.34,5.17-10.98,3.38-1.5-.74-1.15-1.86-.92-3.02.82-4.16,2.22-8.15,3.71-12.1,1.4-3.71,2.66-7.44,3.15-11.39.69-5.63-.18-10.63-6.05-13.22-1.62-.71-1.2-1.37-.64-2.62,1.42-3.19,2.78-5.72,7.05-3.6,2.91,1.45,4.89-.24,6.43-2.82,4.84-8.17,9.88-16.21,15.45-23.9,3.47-4.79,4.85-4.62,7.61.66,1.38,2.66,2.16,6.03,2.1,9.16Z"/>
      <path class="cls-1" d="M220.63,68.54c3.89-.29,7.59-1.44,10.75-3.6,2.91-1.99,4.58-.68,6.23,1.43,3.59,4.58,6.3,9.72,9.06,14.81,1.95,3.58,3.46,7.4,5.39,10.99,1.33,2.48.48,3.63-1.78,4.82-9.54,5.06-19.9,6.6-30.45,7.41-1.26-.02-1.43-.95-1.51-1.89-.82-10.04-2.42-19.96-4.5-29.81-.59-2.79.32-4.45,3.35-4.22,1.16.09,2.33-.6,3.46.05Z"/>
      <path class="cls-28" d="M189.89,172.43c-11.52-6.76-13.69-14.11-11.63-24.59,1.7-8.6,6.66-15.02,14.04-19.62,7.33-5.4,15.15-4.01,23-1.56,1.62.51,3.12,1.41,4.61,2.28,11.4,7.11,14.76,20.29,10.52,32.11-1.8,5.01-5.16,8.79-9.75,11.5-8.24,3.98-16.74,5.48-25.7,2.76-1.92-.58-3.74-1.29-5.09-2.86Z"/>
      <path class="cls-1" d="M161.77,137.27c-.55,1.87-1.09,3.74-1.75,5.99-6.01-3.98-12.53-6.61-19.47-8.12-1.74-.38-1.57-1.31-1.35-2.59,1.94-11.04,5.09-21.75,8.72-32.34.68-1.99,1.27-2.37,3.23-1.19,5.12,3.09,10.87,4.59,16.64,5.97,1.15.28,2.8-.21,3.16,1.66.43,1.36-.14,2.59-.55,3.82-2.54,7.6-4.71,15.3-6.73,23.05-.36,1.37-.49,2.89-1.89,3.74Z"/>
      <path class="cls-25" d="M183.37,48.74c1.35.97,2.74,1.83,4.5,1.76.5.61,1.15.69,1.87.54,6.34.19,12.67.11,19.01.05,3.59.06,6.98-.99,10.32-2.04,3.27-1.03,5.63-.03,7.47,2.65.59.86,1.1,1.78,1.6,2.7,3.81,7.03,3.64,7.49-4.07,10.01-1.98.65-4.02,1.14-6.03,1.7-1.93,1.7-4.4,1.74-6.71,1.91-8.81.64-17.62.16-26.39-.78-1.45-.15-2.86-.54-3.7-1.94-2.23-1.45-4.91-1.61-7.33-2.54-1.84-.71-2.32-1.67-1.31-3.5,1.31-2.38,2.4-4.88,3.59-7.33.33-2.31,1.83-3.19,3.99-3.29,1.07.03,2.13.06,3.2.09Z"/>
      <path class="cls-25" d="M144.47,232.87c1.08,4.75,2.1,9.51,3.27,14.24.45,1.84-.17,2.47-1.93,2.96-4.26,1.18-7.99,1.72-11.38-2.4-2.29-2.78-22.08-2.88-24.42-.1-3.36,3.99-7.11,3.82-11.36,2.62-1.52-3.81.09-7.45.84-11.04,1.68-8.03,1.82-8.02,9.85-7.77,10.02.31,20.02.1,29.78-2.33,3.79-.95,3.7,2.4,5.36,3.83Z"/>
      <path class="cls-1" d="M115.29,285.64c-1.91,9.66-3.96,19.11-7.11,28.31-.54,1.59-1.66,2.28-3.22,2.5-7.37,1.06-14.71.92-22.04-.4-2.18-.39-2.48-1.6-1.7-3.41.16-.36.32-.75.59-1.02,6.82-6.8,7.19-16.09,9.44-24.63.58-2.21.89-3.05,3.48-1.85,4.66,2.16,11.12,2.06,20.56.49Z"/>
      <path class="cls-1" d="M131.05,285.29c6.38,2.28,12.91,2.15,19.2.13,3.28-1.06,4.37-.53,4.56,2.73.05.87.55,1.71.85,2.57,1.51,7.13,2.49,14.41,8.03,20.01,1.31,1.32,3.35,3.67-.15,5.32-7.09,1.57-14.26,1.11-21.42.87-2.78-.44-4.22-2.11-4.98-4.81-2.47-8.84-5.15-17.63-6.09-26.81Z"/>
      <path class="cls-25" d="M96.75,268.86c16.85,5.83,33.71,5.3,50.5-.13,2.4-.78,3.42-.99,3.67,2,.22,2.6.91,5.23,1.82,7.7,1.22,3.34-.77,4.3-3.24,4.93-5.86,1.52-11.75,1.52-17.63,0-3.37-4.52-8.01-4.42-12.87-3.57-1.16.2-2.42.23-2.82,1.68-.39,1.42-1.75,1.59-2.78,1.89-5.96,1.71-11.91,1.44-17.82-.38-2.08-.64-3.06-1.72-2.4-4.03.82-2.89,1.51-5.83,2.14-8.78.19-.91.38-1.5,1.44-1.31Z"/>
      <path class="cls-25" d="M96.96,254.24c.46-.98-.47-2.97,2.33-1.89,4.13,1.59,8.31,1.24,11.37-2.73.88-1.15,2.1-1.43,3.51-1.41,3.95.04,7.9.08,11.85-.04,3.78-.11,6.99.42,9.99,3.37,3.63,3.57,7.93.79,12-.1.08.09.33.23.36.42,1.21,6.75,1.25,6.93-5.37,8.51-13.47,3.21-27.03,4.27-40.62.6-1.3-.35-2.57-.53-3.89-.28-2.93-1.57-1.07-4.28-1.52-6.44Z"/>
      <path class="cls-25" d="M245.94,273.26c1.67-3.03,2.82-5.99-.23-8.97-1.07-1.04.01-2.25.33-3.32,2.76-9.33,5.89-18.55,7.96-28.08.7-2.41,1.55-2.95,3.7-.95,4.43,4.12,9.17,7.92,13.74,11.9.65.57,2.08,1,.78,2.39-7.7,8.26-12.45,18.57-19.15,27.53-1.8,2.41-4.77,2.21-7.15-.51Z"/>
      <path class="cls-25" d="M252.36,230.43c-2.77,2.82-3.88,3.35-11.41,5.39,1.53-7.27,2.98-14.41,4.53-21.53,1.95-9.01,3-18.14,3.54-27.32.12-2.03.64-3.02,2.73-3.51,3.43-.81,6.77-2.02,10.15-3.06,2.42,1.28.75,3.23.51,4.67-2.39,14.4-5.88,28.56-9.51,42.68-.23.88-.36,1.79-.53,2.69Z"/>
      <path class="cls-25" d="M191.49,48.68c-.37-.13-.73-.29-1.1-.39-2.3-.66-6.52-.34-6.43-2.31.14-3.12,2.02-6.48,4.67-8.84,1.05-.93,2.27-.76,3.67-.51,6.37,1.14,12.78,1.79,19.14-.14,2.03-.62,3.32.5,4.31,1.95,1.03,1.51,1.82,3.18,2.71,4.78,1.2,2.19.44,3.24-1.94,3.61-3.22.51-6.4,1.2-9.6,1.81-5.14.93-10.29.79-15.44.05Z"/>
      <path class="cls-17" d="M289.78,312.11c-2.12-10.14,1.4-16.05,11.21-18.62,2.43-.64,4.78.11,6.74,1.53,1.8,1.31,3.19,1.73,5.18.16,1.31-1.02,3.43-2.3,4.94-.34,1.33,1.72-.3,3.33-1.35,4.51-1.9,2.12-2.82,4.08-2.76,7.23.14,7.5-6.76,12.48-14.82,11.4-2.53-.34-4.96-1.37-7.56.28-1.57.99-3.83,1.95-5.37-.14-1.46-1.98.57-3.35,1.41-4.88,2.05-1.6,2.37-.15,2.59,1.55.35-.98-.14-1.8-.21-2.66Z"/>
      <path class="cls-9" d="M181.23,65.3c12.23,2.27,24.51,1.99,36.81.81.52.06,1.23-.06,1.51.23.8.83-.41.42-.51.68-.72,1.8,1.76.28,1.6,1.52-2.02.97-5.33-.13-6.14,1.63-.72,1.57.99,4.15,1.32,6.33,1.4,9.29,2.69,18.6,4.02,27.91-1.75,1.28-2.16.33-2.35-1.31-.2-1.72.66-3.62-.8-5.14-.71-8.14-2.12-16.17-4.04-24.11-.69-2.85-2.04-4.08-5.23-3.81-6.58.56-13.18-.08-19.76-.51-3.18-.21-6.26-.88-9.07-2.5l2.62-1.71Z"/>
      <path class="cls-24" d="M172.45,214.65c-2.69,1.25-2.81,3.6-2.45,6.05.32,2.16.58,4.1-2.1,5.09-.74.27-1.29,1.31-1.72,2.11-3.84,7.13-6.64,7.92-13.4,3.74-.33-.2-.73-.29-1.09-.43-2.31-4.52-2.32-4.56,2.15-6.33,6.54-2.58,12.34-6.33,17.65-10.89.32.22.63.44.95.65Z"/>
      <path class="cls-28" d="M93.64,260.16c-.42,6.2-.43,6.22-6.26,3.91-3.67-1.46-7.19-3.17-9.98-6.1-1.33-1.4-1.5-2.51.09-3.9,2.1-1.85,4.41-3.29,7.02-4.24,2.32-.84,4.62-1.57,5.29,2.03.08.45.56,1.1.95,1.18,4.5.96,3.15,4.26,2.89,7.13Z"/>
      <path class="cls-9" d="M172.47,285.85c9.84,2.71,19.86,3.42,30.05,3.47,8.74.05,17.25-1.08,25.75-2.75-.61,1.21-.97,1.47-4.46,3.26-2.52,1.62-.82,4.25-1.52,6.31-.43.84.95,3.6-1.94,1.84-1.25-.16-1.61-1.22-2.12-2.12-.74-1.3-.85-3.29-3-3.13-1.96.15-1.28,2.4-2.38,3.28-.42,1.2.27,2.62-.96,4.01-1.24-1.87-.72-3.84-.7-5.62.02-2.22-.79-3.1-3.01-2.96-1.15.07-2.33-.19-3.49-.36-6.44-.97-8.25,1.35-6.51,8.39,1.43-.23,2.85-.43,4.12.54-4.45,2.34-5.97,1.39-6.39-3.99-.63-.55-.75-1.37-1.13-2.06-.58-1.08-1.53-1.38-2.67-1.27-1.23.11-1.87.87-2.11,2.02-.35,1.67-.49,3.42-1.8,4.73-1.25-.4-1.62-1.41-1.77-2.56-1-1.9-.37-4.2-1.5-6.07-2.39-2.02-5.2-1.75-8.02-1.49l.02.02c-.61-2.63-3.68-1.12-4.81-2.86-.05-.07.02-.24.07-.34.06-.1.18-.18.27-.26Z"/>
      <path class="cls-24" d="M74.94,253.64c-1.33-6.74,1.66-11.59,4.59-16.47.69-1.14,1.69-1.1,2.74-1.08,3.67.06,6.56,1.66,8.89,4.44,2.28,2.72,1.32,6.18-2.24,6.43-5.46.38-9.72,2.83-13.97,6.68Z"/>
      <path class="cls-20" d="M99.28,230.71c-.83,2.99-1.66,5.87-2.42,8.77-.24.92-.45,1.89-1.38,2.24-1.25.47-1.42-.82-1.9-1.48-2.82-3.88-6.68-5.75-11.39-6.05,2.71-5.81,4.05-6.5,9.83-5.11,2.41.58,4.83,1.09,7.25,1.64Z"/>
      <path class="cls-9" d="M189.89,172.43c10.32,4.4,20.52,3.96,30.62-.78,1.08.5,1.57,1.41,1.76,2.52-11,5.78-22.11,6.14-33.35.73,1.45-.39.25-1.81.97-2.48Z"/>
      <path class="cls-13" d="M161.77,137.27c2.46-10.39,4.8-20.81,9.18-30.62,1.11-2.1,3.07-1.55,4.84-1.5.57.01.48.41.1.66-.21.14-.49.16-.75.23-2.42-.32-2.23,1.76-2.63,3.07-3.43,10.97-6.71,21.99-8.96,33.28-1.26-1.47-1.04-3.46-1.78-5.12Z"/>
      <path class="cls-18" d="M219.73,129.75c-8.9-4.81-18.03-5.51-27.42-1.54-.54-.33-.73-.98-.17-1.16,2.71-.83.59-1.43-.04-2.11,10.75-4.76,20.91-3.53,30.55,3-.61,1.18-1.36,2.14-2.92,1.81Z"/>
      <path class="cls-16" d="M98.48,262.17c4.32,2.04,9.01,2.61,13.66,3.19,1.56.19,2.37.35,2.12,2.25-.22,1.72-.56,2.63-2.59,2.37-4.95-.62-9.69-2.11-14.53-3.19-1.91-3.16-1.54-4.45,1.33-4.62Z"/>
      <path class="cls-22" d="M188.2,299.42c.22-1.42.62-2.84.63-4.26.02-2.55.77-3.49,3.66-3.55,3.74-.07,3.42,2.06,3.42,4.4-.41,6.02-4.6,3.49-7.71,3.41Z"/>
      <path class="cls-16" d="M222.3,296.14c-.22-.61-.33-1.29-.68-1.81-1.9-2.82-.78-4.1,2.2-4.5,2.76-.04,6.03,3.05,5.52,5.42-.41,1.9-2.48,1.5-3.78,2.18-1.65.86-2.62.27-3.26-1.3Z"/>
      <path class="cls-8" d="M212.85,296.01c.29-1.8-1.78-4.66,2.4-4.68,1.97,0,3.12,0,3.31,2.43.11,1.45.59,3.07,1.79,4.22-1.61,1.81-3.87,1.47-5.85,1.44-2.15-.04-.64-2.46-1.65-3.41Z"/>
      <path class="cls-19" d="M184.93,290.79c1.54.41,3.11.72,2.05,3.01-.42.91-.38,2.03-.55,3.06-.96,3.95-3.84,1.95-5.56,1.34-2.18-.76-.26-2.54.27-3.49.87-1.56.51-4.63,3.79-3.93Z"/>
      <path class="cls-11" d="M224.58,107.35c-12.41,1-24.81.53-37.22,0,.73-.76,1.68-.64,2.59-.64,10.68,0,21.36,0,32.03,0,.91,0,1.87-.12,2.59.65Z"/>
      <path class="cls-8" d="M210.44,295.89c.01,2.14.87,4.24-2.33,4.13-5.12-.18-2.07-4.09-2.82-6.17-.94-2.6,1.56-1.63,2.7-1.78,4.09-.55,1.76,2.75,2.46,3.82Z"/>
      <path class="cls-12" d="M157.83,285.89c-2.16-2.22-2.03-5.2-2.09-7.89-.02-.86,2.22-2.29,3.55-.17.69,1.1,1.31,2.24,1.95,3.36.43,1.09,1.33,2.17-.66,2.83-1.01.33-1.84,1.23-2.75,1.87Z"/>
      <path class="cls-12" d="M202.31,300c-1.41.07-2.92.94-4.12-.54.06-1.81.27-3.63.15-5.43-.12-1.88.84-2.09,2.34-2.11,1.78-.03,1.71.97,1.65,2.26-.1,1.94-.03,3.88-.02,5.82Z"/>
      <path class="cls-3" d="M176.91,289.29c.7,1.12,3.3-.15,2.92,1.73-.42,2.08-.79,4.49-2.48,6.01-.72.64-1.97-.25-2.92-.69-1.32-.63-.6-1.62-.27-2.33.77-1.64,1.26-3.48,2.78-4.69l-.02-.02Z"/>
      <path class="cls-9" d="M208.74,51.09c-6.34,1.1-12.67,1.24-19.01-.05,6.34-1.1,12.67-1.16,19.01.05Z"/>
      <path class="cls-7" d="M265.71,163.52c0-5.9,0-11.81.01-17.71.15-.86.29-1.72.44-2.59.11.01.22.03.34.04v22.01c-.12.01-.23.03-.35.04-.15-.6-.29-1.2-.44-1.79Z"/>
      <path class="cls-10" d="M150.06,232.69c3.43,2.57-.79,2.97-1.19,5.39-1.13-3.12-1.95-5.38-2.76-7.64,1.67.13,2.47,1.79,3.95,2.24Z"/>
      <path class="cls-14" d="M191.49,48.68c5.15-.02,10.29-.03,15.44-.05.58.17,1.17.34,1.75.5l-.04.43c-6.31,0-12.61,0-18.92,0,.59-.3,1.18-.59,1.77-.89Z"/>
      <path class="cls-9" d="M289.78,312.11q2.84,3.81-1.56,4.71c-.64-1.32.85-2.12.82-3.18-.04-1.47-1.02-.52-1.65-.42.36-1.3,1.45-1.04,2.38-1.11Z"/>
      <path class="cls-5" d="M179.27,190.57c0-2.51,0-5.03,0-7.54.32-.04.59-1.72.79-.29.37,2.67.37,5.48,0,8.15-.2,1.41-.45-.3-.78-.31Z"/>
      <path class="cls-24" d="M207.96,3.83c-.08.38-.07.61-.13.63-5.63,1.75-4.54,5.23-3.1,9.61,1.88,5.73,2.63,11.81,4.16,17.67.69,2.64-.22,3.37-2.56,3.35-3.95-.04-9.25,1.43-11.5-.55-2.42-2.14.4-7.23,1.45-10.82,1.45-4.94.91-10.39,4.27-14.91,1.18-1.6-1.57-1.8-2.6-2.56-.9-.66-2.74-.65-2.51-2.08.22-1.41,1.89-.91,2.98-1.09,3.26-.53,6.44-.39,9.54.76Z"/>
      <path class="cls-9" d="M219.73,129.75c.95-.64,1.54-1.85,2.92-1.81,16.35,10.6,16.13,36.88-.37,46.24-.59-.84-1.18-1.68-1.76-2.52,14.18-9.15,14.8-31.3-.78-41.9Z"/>
      <path class="cls-9" d="M202.58,221.78c-7.28-.08-12.71-4.92-12.73-11.36-.02-6.88,6.84-12.96,14.42-12.79,6.4.15,11.43,5.55,11.4,12.25-.04,6.9-5.62,11.97-13.09,11.9Z"/>
      <path class="cls-9" d="M104.79,221.79c-2.62-2.73-5.76-4.8-9.42-5.52-15.74-3.1-20.69-12.25-22.53-30.86-1.68-16.95,13.05-34.52,29.2-39.91,2.74-.91,5.44-1.98,8.36-2.22,2.26.64,4.4-.34,6.6-.51,5.91-.44,11.79-.82,17.64.68,1.35.35,2.87.37,4.27-.2,19.54,3.51,33.4,16.04,37,33.38,2.67,12.88-2.24,25.36-12.31,29.88-2.38,1.07-3.99,3.16-4.68,5.65-1.19,4.31-4.23,6.52-8.19,7.84-4.38,1.46-8.78,2.79-13.42,3.18-1.49-1.01-4,1.01-4.94-1.65,1.11-2.19,3.41-.94,5.01-1.72,2.42-.62,4.88-1.11,7.28-1.84,5.22-1.57,9.76-3.91,11.71-9.57.89-2.58,2.93-4.41,5.27-5.71,9.06-5.03,12.16-15.49,9.56-25.84-4.06-16.18-15.5-24.68-30.91-28.31-13.08-3.08-26.15-2.55-38.84,2.38-4.68,1.37-8.55,4.25-10.78,5.55,2.59-1.72,7.11-4.49,12.23-6.09,11.2-4.01,22.56-3.39,33.95-1.14,3.98.79,4.26,1.48,2.11,4.69-1.13,1.68-1.08,3.23-.08,4.79,3.25,5.08,7.78,8.17,13.89,8.69,2.1.18,3.93-.47,5.25-2.19,1.39-1.81,2.78-1.83,4.14-.02,6.97,9.26,8.9,23.23,3.08,32.82-1.53,2.52-3.47,4.66-6.12,6.05-3.04,1.61-5.33,3.98-6.51,7.18-1.38,3.75-4.1,5.64-7.75,6.63-3.05.83-6.11,1.62-9.21,2.23-6.76,1.62-13.6,2.37-20.56,1.94,1.49.09,2.99.08,4.5.06,1.61.17,3.42-.17,4.64,2.21-6.92.62-13.39.94-19.44-2.52Z"/>
      <path class="cls-9" d="M104.79,221.79c.3-.22.8-.67.87-.61,5.17,4.41,11.64.79,17.16,3.08-.6-1.5-2.27-.45-2.91-1.63,4.07-1.08,8.15-2.2,12.41-1.07,1.67.54,3.34,1.09,5.01,1.63-.7.07-1.4.13-2.1.2-2,.89-3.91-.34-5.85-.48.78.07,1.77-.39,1.63,1.14-5.93,1.21-11.92,1.74-17.95,1.45-3.14-.15-6.07-1.2-8.26-3.7Z"/>
      <path class="cls-13" d="M138.92,143.27c-1.35,1.24-3.05.85-4.51.62-6.77-1.06-13.51-1.1-20.28.02-1.22.2-2.64.48-3.73-.61,8.09-1.5,16.16-2.49,24.32-.3,1.3.35,2.82-.39,4.2.28Z"/>
      <path class="cls-9" d="M131,224.05c-.48-.98-1.67-.47-2.56-1.3,2.5-.75,4.57.97,6.78.64-1.32.81-2.76.78-4.23.66Z"/>
      <path class="cls-9" d="M160.66,80.57c.53-3.92,3.12-6.89,5.22-10.08.13-.2.78-.28,1.04-.13.46.25.78.77.45,1.32-1.89,3.16-3.81,6.31-5.72,9.46-.33-.19-.66-.38-.99-.57Z"/>
      <path class="cls-9" d="M171.7,71.78c-1.36,2.04-2.71,4.09-4.57,6.89-.63-4.43,1.53-6.01,3.59-7.65l.98.76Z"/>
      <path class="cls-9" d="M172.26,77.12c0-2.7,1.63-3.68,2.89-4.87.07-.07.87.41.85.51-.47,1.92-1.66,3.24-3.74,4.35Z"/>
      <path class="cls-9" d="M213.42,100.33c-.38.92-1.01,1.59-2.03,1.56-1.21-.03-1.59-.98-1.41-1.93.18-.98.96-1.57,2.07-1.28.83.21,1.39.7,1.37,1.65Z"/>
      <path class="cls-9" d="M211.8,94.36c-.11.98-.7,1.68-1.7,1.68-.8,0-1.36-.62-1.44-1.48-.1-1.15.58-1.64,1.62-1.64.87,0,1.41.49,1.52,1.45Z"/>
      <path class="cls-1" d="M198.25,268.73c-11.57-.64-23.1-1.62-34.5-4.15-3.68-.82-3.68-3.57-4.66-5.97-.44-1.08.5-1.36,1.25-1.56,6.36-1.62,10.72-6.03,14.79-10.77,3.14-3.65,6.37-5.44,11.67-4.21,6.67,1.55,13.67,1,20.52.56,2.53-.16,3.01.51,2.8,3.07-.54,6.44-.76,12.92-.81,19.38-.02,2.65-.68,3.87-3.49,3.68-2.5-.17-5.01-.04-7.56-.04Z"/>
      <path class="cls-1" d="M251.09,234.65c-2.8,9.31-5.44,18.1-8.07,26.89-.32,1.07-1.17,1.22-2.09,1.49-8.5,2.49-17.13,4.33-25.94,5.37-2.59.31-3.26-.39-3.23-3.03.1-6.99,1.12-13.97.51-20.97-.23-2.65,1.67-1.84,2.89-1.91,8.98-.53,17.93-1.21,26.52-4.14,2.96-1.01,5.82-2.28,9.42-3.7Z"/>
      <path class="cls-28" d="M172.27,216.47c2.37,2.4,2.42,4.74,3.12,6.76.74,2.1,1.75,2.05,3.11.64,1.33-1.38,1.96-3.42,3.86-4.35.52,1.14.29,2.13-.25,3.08-1.51,2.66-1.54,5.07.52,7.63,1.92,2.39,1.72,5.49-.76,7.02-5.94,3.67-10.08,9.23-15.35,13.55-2.95,2.42-4.52,2.08-6.45-1.26-2-3.47-2.39-7.15-1.27-11.04.68-2.37,2.94-2.41,4.53-3.35,2.04-1.21,4.2-1.96,4.61-4.87.21-1.47,1.32-3.34,3.08-3.11,2.1.27.32,2.22.78,3.24.75,1.65,1.74,3.2,2.7,4.76.33.54.89.53,1.29.01.58-.73.27-1.47-.06-2.21-2.16-4.92-3.42-10.04-3.46-16.5Z"/>
      <path class="cls-23" d="M160.29,254.16c-1.5.24-2.77.58-4.06.62-2.89.08-4.97-.81-5.19-4.25-.15-2.34-.57-4.7-1.2-6.96-.56-2.02.07-3.68,1.08-5.18.87-1.29,1.6-3.26,3.87-2.42,2.37.88,1.35,2.6,1.09,4.24-.83,5.24.76,9.8,4.4,13.95Z"/>
      <path class="cls-8" d="M131.06,269.81c-2.38.4-1.84-1.62-2.28-2.81-.61-1.67.66-1.61,1.68-1.76,5.85-.87,11.79-1.38,17.29-3.85,1.07-.48,1.74-.46,1.96.84.25,1.48.43,2.8-1.41,3.57-4.29,1.78-8.78,2.75-13.33,3.48-1.3.21-2.6.36-3.91.53Z"/>
      <path class="cls-2" d="M153.71,257.5c2.4-.04,5.09,4.91,3.59,6.84-2.13,2.75-1.83,5.3-.61,8.12.33.77,1.19,1.71-.28,2.23-1.49.52-2.02-.26-2.43-1.65-1.37-4.62-1.37-9.36-1.64-14.1-.07-1.28.34-1.72,1.37-1.44Z"/>
      <path class="cls-22" d="M121.14,270.3c-.91,0-1.83-.04-2.74,0-1.78.09-1.7-1.07-1.73-2.32-.03-1.31.03-2.32,1.77-2.24,1.43.07,2.87-.11,4.31-.05,1.45.06,3.39-1.13,3.5,2,.1,3.12-1.83,2.48-3.53,2.61-.52.04-1.04,0-1.57,0,0,0,0-.01,0-.02Z"/>
      <path class="cls-9" d="M203.05,279.63c-.09,1.1-.79,1.76-1.94,1.86-1.06.09-1.76-.54-1.85-1.55-.11-1.23.65-1.9,1.86-1.96,1.06-.06,1.66.54,1.92,1.65Z"/>
      <path class="cls-9" d="M228.84,278.72c-1.35-.14-1.99-.73-1.86-1.79.13-1.1.83-2.04,2.01-1.9.92.11,1.43.98,1.37,2.03-.07,1.14-.93,1.38-1.51,1.66Z"/>
      <path class="cls-9" d="M172.15,278.52c-.62-.03-1.43-.37-1.5-1.48-.07-1.21.56-2.01,1.79-2.03,1.04-.01,1.64.74,1.7,1.74.07,1.07-.56,1.65-1.99,1.77Z"/>
      <path class="cls-9" d="M223.99,151.72c-.06,11.18-7.79,18.24-19.96,18.22-12.6-.02-19.7-7.47-19.56-20.55.09-8.75,9.76-17.07,19.69-16.94,11.45.15,19.88,8.34,19.82,19.27Z"/>
      <path class="cls-9" d="M158.75,126.76c-.98-.1-1.62-.66-1.67-1.7-.06-1.39.65-2.19,2.08-2.17,1.14.02,1.65.82,1.57,1.8-.08,1.09-.68,1.94-1.99,2.07Z"/>
      <path class="cls-9" d="M162.7,117.84c-.27.98-.7,1.83-1.84,1.64-.82-.14-1.36-.81-1.28-1.7.1-1.06.77-1.7,1.83-1.55.82.11,1.38.69,1.29,1.62Z"/>
      <path class="cls-9" d="M188.78,56.11c1.15.15,1.96.74,1.89,2.01-.08,1.57-1.04,2.4-2.58,2.31-1.26-.08-1.77-.97-1.71-2.19.08-1.48,1.03-2,2.4-2.13Z"/>
      <path class="cls-26" d="M216.18,57.45c.03,1.68-.6,2.57-1.99,2.68-1.31.1-2.33-.48-2.49-1.87-.18-1.53.6-2.54,2.16-2.6,1.32-.05,2.13.75,2.33,1.79Z"/>
      <path class="cls-9" d="M108.47,236.78c1.69.11,2.61.88,2.64,2.45.03,1.56-.86,2.45-2.39,2.49-1.55.05-2.43-.75-2.45-2.37-.02-1.61.89-2.33,2.21-2.57Z"/>
      <path class="cls-9" d="M135.39,235.69c1.95-.01,2.6,1.15,2.58,2.56-.03,1.42-.79,2.55-2.43,2.56-1.66,0-2.3-1-2.31-2.56,0-1.62.85-2.4,2.16-2.55Z"/>
      <path class="cls-9" d="M259.17,238.9c.3,2.52-.33,4.69-2.47,6.83-.86-3.23.64-5.09,2.47-6.83Z"/>
      <path class="cls-9" d="M260.74,247.57c-.39-.29-.57-.36-.58-.44-.18-2.24.82-3.93,2.53-5.24.1-.08.83.38.81.48-.46,1.99-1.6,3.58-2.76,5.2Z"/>
      <path class="cls-9" d="M302.65,295.42c1.78-.06,3.39.45,4.85,1.42,4.31,2.86,4.46,5.01.65,8.4-3.46,3.08-7.38,5.48-11.31,7.91-2.57,1.59-3.77.64-4.85-1.64-3.71-7.83,1.8-16.18,10.66-16.09Z"/>
      <path class="cls-9" d="M296.85,315.77c5.66-3.73,10.25-7.27,14.88-11.14.99,8.38-4.01,12.31-14.88,11.14Z"/>
      <path class="cls-9" d="M316.28,295.81c-.63,2.34-1.6,3.83-3.01,4.26-1.21.37-1.59-1.3-2.1-2.44,1.57-.56,3.06-1.09,5.11-1.82Z"/>
      <path class="cls-23" d="M202.83,219.05c-5.78.02-10.32-3.9-10.22-8.81.11-5.19,6.06-10.83,11.35-10.73,4.66.08,9.14,5.11,9.11,10.23-.03,5.31-4.42,9.3-10.24,9.31Z"/>
      <path class="cls-25" d="M100.9,150.41c19.38-7.3,38.37-7.03,56.12,4.28,11.13,7.1,16.51,17.95,15.92,31.3-.33,7.42-3.53,13.46-10.17,17.29-2.98,1.71-5.4,3.97-6.37,7.26-1.15,3.9-3.97,5.79-7.46,6.95-3.75,1.24-7.56,2.29-11.52,2.69-.75.33-1.53.7-1.55-.67,2.43-.6,4.89-1.12,7.3-1.81,4.09-1.17,7.51-3.04,8.81-7.61.7-2.46,2.4-4.6,4.7-5.68,10.63-4.99,12.76-17.64,9.78-28.18-1.26-4.47-3.27-8.62-6.6-12.45-1.17,4.52-4.5,5.31-8.22,4.71-5.56-.9-10.2-3.58-13.36-8.36-2.51-3.8-2.03-5.78,2.18-8.98-12.92-3.52-25.41-3.63-37.94,0-.82.38-1.62.71-1.61-.74Z"/>
      <path class="cls-17" d="M135.87,219.5c.52.22,1.03.44,1.55.67-1.46,1.34-3.58.24-5.09,1.38-4.14.36-8.27.71-12.41,1.07-2.43-.2-4.92.58-7.5-.43,7.95-.91,15.7-1.8,23.46-2.69Z"/>
      <path class="cls-17" d="M113.8,172.05c-2.82,3.89-6.03,7.39-10.38,9.7,2.38-4.32,6.57-6.81,10.38-9.7Z"/>
      <path class="cls-6" d="M100.9,150.41c.54.25,1.08.49,1.61.74-5.01,2.07-9.81,4.59-14.64,7.09,3.96-3.28,8.12-6.19,13.02-7.82Z"/>
      <path class="cls-17" d="M140.3,192.69c1.47-2.76,4.73-4.98,7.49-7.74-2.69,2.78-5.37,5.55-7.49,7.74Z"/>
      <path class="cls-17" d="M113.84,197.12c-2.25,3.2-4.73,6.18-8.17,8.19,1.8-3.62,4.86-6.03,8.17-8.19Z"/>
      <path class="cls-9" d="M196.91,247.14c-.23,1.08-.97,1.63-1.97,1.52-1.1-.12-1.54-1-1.35-2.01.15-.84.78-1.37,1.69-1.3,1.07.09,1.68.66,1.63,1.79Z"/>
      <path class="cls-9" d="M199.95,247.48c.16-.93.63-1.73,1.73-1.66.82.05,1.47.62,1.56,1.51.1.93-.49,1.59-1.31,1.68-.96.1-1.82-.31-1.98-1.53Z"/>
      <path class="cls-9" d="M216.17,246.52c.81.32,1.37.82,1.37,1.69,0,.92-.53,1.43-1.44,1.36-1-.08-1.72-.66-1.55-1.72.13-.81.81-1.24,1.62-1.33Z"/>
      <path class="cls-4" d="M218.21,254.14c-.02,1.12-.68,1.54-1.48,1.62-.86.09-1.55-.38-1.59-1.3-.04-.89.54-1.47,1.42-1.54.93-.08,1.36.57,1.65,1.22Z"/>
      <path class="cls-15" d="M193.84,139.88c6.89-5.85,17.44-4.88,23.2,2.03,4.94,5.93,4.68,15.17-1.43,20.19,2.79-4.23,3.23-8.01,2.48-11.85-.76-3.89-2.92-7.01-6.17-9.33-1.32-.94-2.26-1.42-3.9.16-2.89,2.76-8.02,2.02-10.28-1.22-1.44-2.05-2.55.57-3.89.03Z"/>
      <path class="cls-9" d="M202.59,215.29c-3.36-.1-5.85-2.29-5.84-5.15.02-3.63,3.01-6.69,6.44-6.58,3.21.1,5.5,2.47,5.4,5.59-.11,3.42-2.86,6.24-6,6.15Z"/>
    </g>
    <polygon class="cls-9" points="288.72 77.13 285.34 77.44 283.68 80.41 282.33 77.29 279 76.62 281.55 74.38 281.16 71.01 284.08 72.74 287.16 71.32 286.41 74.63 288.72 77.13"/>
    <polygon class="cls-9" points="9.72 239.13 6.34 239.44 4.68 242.41 3.33 239.29 0 238.62 2.55 236.38 2.16 233.01 5.08 234.74 8.16 233.32 7.41 236.63 9.72 239.13"/>
    <circle class="cls-17" cx="321.94" cy="168.3" r="2.5"/>
    <circle class="cls-17" cx="69.94" cy="124.3" r="2.5"/>
    <circle class="cls-17" cx="35.94" cy="200.3" r="2.5"/>
    <circle class="cls-17" cx="72.44" cy="292.8" r="3"/>
    <circle class="cls-17" cx="288.94" cy="207.3" r="3.5"/>
    <polygon class="cls-17" points="324.04 266.02 321.54 266.35 320.39 268.59 319.31 266.32 316.82 265.92 318.65 264.19 318.25 261.7 320.47 262.9 322.72 261.76 322.26 264.24 324.04 266.02"/>
    <polygon class="cls-17" points="36.32 289.5 32.75 289.97 31.11 293.18 29.56 289.93 26.01 289.36 28.62 286.88 28.06 283.32 31.23 285.04 34.44 283.41 33.78 286.95 36.32 289.5"/>
    <circle class="cls-9" cx="320.44" cy="168.8" r="3"/>
    <path class="cls-1" d="M287.29,313.41l2.45-3.1,1.37,1.8s-1.11,1.32-2.39,2.51-1.43-1.21-1.43-1.21Z"/>
  </g>
</svg>