<?xml version="1.0" encoding="UTF-8"?>
<svg id="Capa_2" data-name="Capa 2" xmlns="http://www.w3.org/2000/svg" viewBox="0 0 338.21 365.33">
  <defs>
    <style>
      .cls-1 {
        fill: #fefefe;
      }

      .cls-1, .cls-2, .cls-3, .cls-4, .cls-5, .cls-6, .cls-7, .cls-8, .cls-9, .cls-10, .cls-11, .cls-12, .cls-13, .cls-14, .cls-15, .cls-16, .cls-17, .cls-18, .cls-19, .cls-20, .cls-21, .cls-22, .cls-23, .cls-24, .cls-25, .cls-26, .cls-27, .cls-28, .cls-29, .cls-30, .cls-31, .cls-32, .cls-33, .cls-34, .cls-35, .cls-36, .cls-37 {
        stroke-width: 0px;
      }

      .cls-2 {
        fill: #040405;
      }

      .cls-3 {
        fill: #020204;
      }

      .cls-4 {
        fill: #020202;
      }

      .cls-5 {
        fill: #f4f3f4;
      }

      .cls-38, .cls-39 {
        fill: none;
        stroke: #000;
        stroke-miterlimit: 10;
      }

      .cls-6 {
        fill: #040404;
      }

      .cls-7 {
        fill: #252525;
      }

      .cls-8 {
        fill: #030303;
      }

      .cls-9 {
        fill: #171717;
      }

      .cls-10 {
        fill: #020203;
      }

      .cls-11 {
        fill: #050505;
      }

      .cls-13 {
        fill: #1a1a1a;
      }

      .cls-14 {
        fill: #f5f5f5;
      }

      .cls-15 {
        fill: #151515;
      }

      .cls-16 {
        fill: #030304;
      }

      .cls-17 {
        fill: #141414;
      }

      .cls-18 {
        fill: #161616;
      }

      .cls-19 {
        fill: #0d0d0d;
      }

      .cls-20 {
        fill: #fff;
      }

      .cls-39 {
        stroke-width: 2px;
      }

      .cls-21 {
        fill: #040305;
      }

      .cls-22 {
        fill: #fafafa;
      }

      .cls-23 {
        fill: #f1f1f2;
      }

      .cls-24 {
        fill: #1f1f1f;
      }

      .cls-25 {
        fill: #d9d9d9;
      }

      .cls-26 {
        fill: #090909;
      }

      .cls-27 {
        fill: #fbfbfb;
      }

      .cls-28 {
        fill: #030204;
      }

      .cls-29 {
        fill: #1c1c1c;
      }

      .cls-30 {
        fill: #1e1e1e;
      }

      .cls-31 {
        fill: #1d1d1d;
      }

      .cls-32 {
        fill: #fdfdfd;
      }

      .cls-33 {
        fill: #212121;
      }

      .cls-34 {
        fill: #191919;
      }

      .cls-35 {
        fill: #070707;
      }

      .cls-36 {
        fill: #080808;
      }

      .cls-37 {
        fill: #111;
      }
    </style>
  </defs>
  <g id="Astronauta_2" data-name="Astronauta 2">
    <path class="cls-12" d="M75.87,151.65c1.02.73,2.03,1.45,3.78,2.7-9.63-17.39-11.76-34.77-4.83-52.86.96.18,1.75.21,2.34-.89.52-.97,1.38-1.8,2.73-1.44,2.27-.62,3.77-2.49,5.8-3.51,2.15-1.09,3.59-.61,3.66,1.84.14,5.06,3.36,7.04,7.62,8.1,9.9,2.46,18.58.58,25.59-7.23,3-3.34,4.14-6.98,1.66-11.09-1.26-2.08-.63-3.31,1.44-4.09,3.94-1.49,7.97-2.49,12.23-2.19,3.14.81,6.34.41,9.49.44.23-.37.21-.79.27-1.19.38-.54.07-1.14.17-1.71.58-1.09,1.6-1.4,2.72-1.52,15.38,2.65,27.06,10.12,32.56,25.38,1.7,4.72,3.65,9.44,3.53,14.63-.58,3.63-.49,7.27-.04,10.9-.33,5.62-2.82,10.13-7.05,13.74-3.81,3.25-5.48,7.4-5.5,12.38-.03,8.46-1.78,10.7-9.97,13.31-.72.23-1.45.45-2.18.66-.76.14-1.36.73-2.14.83-2.44-.8-5.31-.18-7.42-2.15.06-1.23,1.58-1.4,1.8-2.51-.17-3.03-1.98-4.53-4.76-5.02-14.43-2.55-28.17-.95-40.86,6.86-1.81.9-3.25,2.49-5.32,2.92-.95.02-1.62-.68-2.47-.93-4.72-1.18-9.42-2.45-13.66-4.96-.92-.43-1.91-.14-2.87-.25-3.52-3.39-8-5.84-10.26-10.47.51-.62,1.11-1,1.94-.67Z"/>
    <path class="cls-12" d="M79.46,100.17c-1.6-.8-1.53,1.01-2.07,1.55-1.17,1.15-1.78.59-2.57-.22,5.65-14.83,15.67-25.94,30.12-32.13,21-9,42.77-11.02,64.35-2.13,18.62,7.67,29.08,22.5,33.4,41.9-.29,4.39,1.06,8.65.9,13.05-.1,2.48-1.09,4.97-.14,7.47-.6,6.36-2.64,12.27-5.68,17.85-.82,1.51-1.26,2.3,1.05,3.06,7.8,2.6,11.5,8.49,12.23,16.47,0,6.58-.13,13.17.05,19.75-1.84,14.64-2.28,29.71-12.86,41.72,1.84.65,2.99-1.03,4.54-1.3,2.76.7,1.5,1.73.35,2.99-.95,1.04-3.02.28-3.31,2.21-5.89,4.33-12.06,8.11-19.19,10.03-.87,4.27-.57,8.52-.02,12.77.02,11.06-1.42,21.94-4.51,32.57-.98,3.37-2.12,6.69-3.59,10.07,2.85.32,5.03-.82,7.34-1.28,1.12-.22,2.62-.32,2.97.94.3,1.11-1.12,1.45-2.02,1.87-2.52,1.19-5.2,1.75-7.93,2.08,17.68-4.08,35.79-6.91,51.12-17.79,2.56-1.14,4.84-2.67,6.77-4.71,5.58-6.63,13.9-9.99,19.62-16.52,3.79-4.32,7.33-8.75,9.66-14.01,2.12-4.81,6.03-8.39,8.48-13.02,5.5-10.4,9.3-21.42,11.85-32.78,1.39-6.21,1.32-12.81,2.18-19.2.18-1.36-.4-3.18,1.78-3.56.15.2.34.48.23.67-.25.44-.07.88.05.39,0-.02.02-.06,0-.11-.77-4.13-.99-8.25-.11-12.4.06-.29-.3.5-.65.27-1.06-.52-1.04-1.49-1.02-2.46.13-4.77-1-9.54.01-14.31,0-.02-.18-.12-.28-.12-.12,0-.24.07-.37.1-1.8-1.56-1.77-3.85-2.3-5.88-1.78-6.9-4.24-13.49-8.31-19.41-1.98-2.88-4.6-5.05-7.58-6.75-3.72-2.12-6.8-.45-5.96,3.7,1.81,8.91-3.21,16.77-3.11,25.34.01,1.13-.17,2.61-1.75,3.04-2.41-1.29-.67-3.76-1.56-5.48.43-4.77.35-9.62,2.29-14.16.74-1.72.13-3.48-.07-5.24-.5-4.43-1.4-9.3,3.31-11.98,4.76-2.7,8.79.34,12.44,3.09,3.68,2.78,6.44,6.44,8.48,10.58,3.13,6.37,5.37,13.06,6.93,19.97.22,3.55.28,7.1.71,10.64.49,3.07.99,6.14,1.48,9.21-.43,4.54-.5,9.09.02,13.63-1.02,15.41-3.11,30.58-9.62,44.83-6.88,15.04-14.91,29.62-27.15,40.69-9.18,8.3-19.1,16.08-29.51,22.99-5.84,3.88-12.19,6.77-19.17,7.91-3.78.61-7.34,1.84-10.99,2.86-9.94,2.77-19.96,5.22-29.95,7.8-3.27-.36-6.55-.49-9.82.07-1.88-.18-3.88.01-5.62-.58-10.42-3.59-21.56-4.08-31.98-7.62-1.92-.65-3.51-2.62-5.89-1.75-2.51-.41-5.01-.41-7.52,0-11.53-2.2-21.4-6.93-27.06-17.95-.56-1.09-1.42-1.72-2.4-2.31-8.97-5.39-15.46-12.97-19.43-22.6-1.32-3.21-3.63-5.75-5.08-8.82.61-2.24-.94-4.86,1.19-6.84.99-.33,1.56.36,1.58,1.07.11,4.16,3.04,7.06,4.61,10.56,1.13,3.5,3.16,6.49,5.29,9.42,2.95,4.1,6.56,7.51,10.94,11.03.52-4.1.47-8.07,3.01-10.26,5-4.32,5.74-10.09,6.87-15.84.51-2.6,2.78-5.07,1.95-7.56-.86-2.59-4.35-2.71-6.45-4.27-1.4-1.04-3.17-1.71-3.51-3.74.34-1.33,1.31-1.78,2.56-1.85,2.8,1.69,5.27,3.88,8.32,5.22,1.68.74,2.49.6,3.53-1.12,3.62-5.99,3.72-5.94-3.1-8-1.33-.4-2.74-1.15-4.02-1-6.42.76-9.1-3.27-10.86-8.32-1.24-3.57-2.88-5.23-7.24-4.96-6.9.42-13.04-5.62-13.24-12.07-.15-4.87,2.56-8.03,6.75-10.1.39-.9.9-1.69,1.9-2,6.8-1.05,7.5-.25,10.14,5.84,2.39,5.51,3.51,10.88,2.88,16.91-.53,5.12,4.87,10.46,10.07,11.15,5.6.74,10.72,3.01,15.82,5.29,1.34.6,2.58,1.76,4.24.99.67-.52.93-1.81,1.93-1.58,1.05.24.73,1.41.96,2.23.54,1.87.08,4.47,3.1,4.73,1.57-.36,3.15.69,4.71-.09.82-.52,1.26-1.51,2.26-1.81,1.77.31,2.64-1.17,3.87-1.94,3.04-1.88,5.27-5.02,9.05-5.75,1.15.33,2.15.83,2.44,2.14-.66,1.65-1.14,3.22-.4,5.1,1.5,3.81,2.01,7.83,1.96,11.95-.02,1.24-.68,3.26,1.24,3.44,1.57.15,1.46-1.81,1.74-2.96,1.15-4.73,2.74-9.24,5.67-13.2,4.07-5.51,9.33-8.84,16.34-9.03,2.68.47,5.35.51,8.02-.03,8.71.04,13.83,5.08,17.16,13.34,4.52-7.11,7.06-14.09,8.23-21.62.25-1.6-.58-1.97-2.01-1.8-4.17.48-8.34.47-12.44-.51-2.65-.64-3.4.6-3.41,2.91-.41,1.54-1.08,2.97-2.85,3.06-5.1.26-10.22.59-15.3-.25-.74-.12-1.4-.52-1.95-1.06-.31-2.31,1.46-1.62,2.61-1.83,4.21.67,8.42.87,12.62-.01,1.43-2.6.12-4.45-1.87-5.81-2.23-1.53-3.48-3.51-4.19-6.09-1.05-3.8-3.03-7.24-4.56-10.86-1.45-3.42-.65-6.22,2.54-8.12,1.64-.97,3.4-1.73,4.57-3.31,1.12.7,1.6.14,1.8-.94,1.94.95,4.05.94,6.14,1.09,5.94.51,11.88.25,17.81.13,2.27.19,3.1,2.07,3.99,3.66,1.79,3.2,3.19,6.58,3.23,10.35-.53,2.82-.75,5.64-.05,8.45,4.9-1.71,6.92-5.53,7.53-10.29.82-6.4-1.78-11.92-4.77-17.28-1.86-3.33-4.11-6.38-6.81-9.1-1.83-1.84-3.45-1.98-5.61-.32-4.75,3.64-9.87,6.64-15.89,7.76-2.29-.28-2.96-1.4-1.79-3.48,4.88-3.36,10.36-5.74,14.94-9.63,9.39-7.97,15.25-17.96,16.67-30.15,1.61-13.77-1.11-26.69-9.13-38.29-9.44-13.66-22.43-21.21-38.88-22.95-1.47-.16-3.1.19-4.21-1.19-.4-.08.68-.9-.4-.73-3.62.55-7.25.72-10.86-.14-.19-.05-.36-.07-.36-.05-.24.56.62.07.5.53-.72,1.92-2.48,1.42-3.89,1.6-14.45,1.86-27.97,5.86-38.44,16.3,9.24-4.45,19.35-6.96,29.78-8.28,1.26-.16,2.53-.07,3.78.22,5.38.49,10.74.63,16.1-.12,2.8.15,5.85-.58,7.95,2.15-1.1.11-2.02.51-2.54,1.56-1.02,1.07-2.25.75-3.53.67-6.9-.45-13.8-.49-20.7-.05-.96,1.36-2.46,1.07-3.8,1.28-10.96,1.74-21.45,4.82-31.14,10.39-2.9,1.67-5.49,3.57-7.11,6.62-.44.83-.95,1.84-2.15,1.94Z"/>
    <path class="cls-12" d="M260.56,25.31c-2.46,7.35-10.08,12.61-18.7,12.91-8.73.3-15.58-3.73-18.65-10.97-3.11-7.35-1.28-15.81,4.69-21.61,9.89-9.61,26.11-6.5,31.22,5.97-.5,1.71-1.35,2.23-2.78.82-1.02-1.65-1.91-2.03-3.38-.23-4.1,5.01-9.78,7.38-15.87,8.83-3.07.73-5.97,2.13-9.19,2.27-1.57.07-1.85,1.08-1.3,2.41.79,1.91,2.08,3.09,4.27,3.2,1.61.08,3.33-.3,4.74.88-.18,2.21-2.24,1.43-3.35,2.11-.03.95.83,1.08,1.31,1.03,4.53-.46,9.03.7,13.51.39,3.93-.27,6.96-2.68,9.16-5.98.75-1.13,1.13-2.57,2.58-3.13.92-.16,1.4.37,1.76,1.09Z"/>
    <path class="cls-12" d="M199.89,231.82c-.22-2.14,1.85-1.67,2.82-2.24,1.67-.99.81-1.58.06-2.38,3.62-3.45,7.44-6.82,11.18-9.98,4.05-3.42,7.52-7.63,12.09-10.44,1.46-.9,2.79-2.08,2.97-3.76.67-6.56,4.32-11.84,8.43-16.29,5.56-6.03,7.61-13.41,9.57-20.71,1.73-6.44,3.32-12.98,4.63-19.56.49,1.83.99,3.66,1.48,5.48.58.62.65,1.41.44,2.14-1.47,4.98-2.39,10.1-3.37,15.18-1.9,9.94-7.18,17.89-13.54,25.41-2.45,2.89-4.24,6.29-4.39,10.31-.08,2.09-1.68,3.23-3.06,4.58-5.1,4.97-11.09,8.92-15.72,14.47-2.63,3.16-6.43,5.27-10,7.43-1.05.63-2.29,1.17-3.58.37Z"/>
    <path class="cls-12" d="M47.52,240.59c-.51,2.37-1.01,4.73-1.52,7.1-1.11-8.92-4.36-17.36-5.81-26.2-.67-4.09-.65-7.91,3.3-10.4,3.19-2.01,7.76-1.52,11.1,2,3.63,3.84,7.92,6.98,11.27,11.07,2.17,2.65,6.07,2.55,8.18,5.26-.83.55-1.65,1.1-2.48,1.64-3.31.24-5.85-1.51-7.97-3.6-3.23-3.21-6.82-6.1-9.47-9.88-.29-.41-.66-.77-1.04-1.11-2.05-1.81-4.27-3.61-7.14-2.23-2.92,1.4-2.33,4.32-1.98,6.76.73,5.01,1.43,10.05,3.25,14.85.56,1.48,1.31,3.1.3,4.74Z"/>
    <path class="cls-33" d="M55.83,187.4c-.31.78-.8,1.39-1.63,1.67-3.14-6.86-6.12-13.79-9.49-20.53-1.56-3.12-1.76-5.77.08-8.77,1.57-2.57,2.73-5.38,4.12-8.06,1.22-2.36,3.01-3.9,5.83-3.84,3.79-.46,7.57-.49,11.36.02,3.68.17,6.77,1.85,9.78,3.76l-1.92.9c-3.33.16-5.98-2.27-9.23-2.43-2.56-.62-5.12-.55-7.69-.1-4.15,1.08-8.21,5.73-8.51,9.8-.03.35.38.62.7.83.72.55,1.4,1.12,1.42,2.12-3.33,1.48-3.21,3.63-1.68,6.55,2.17,4.13,3.8,8.54,5.83,12.75.79,1.64,2.04,3.29,1.05,5.33Z"/>
    <path class="cls-34" d="M256.86,12.39c1.14.88,1.55-.36,2.25-.77,2.12,4.39,2.82,8.94,1.45,13.7-.55-.27-1.11-.54-1.66-.82-1.19-1.06-2.1-.21-2.99.48-4.72,3.64-9.96,5.87-16,6.02-1.66.04-3.12,1-4.75,1.19-1.48.17-3.04.51-4.22-.86,1.2-1.45,3.45.24,4.54-1.51.53-2.61,2.73-2.34,4.48-2.34,6.97,0,12-3.9,17.23-8.04-1.16-.44-1.63.31-2.24.56-1.85.77-3.83,1.4-5.03-.72-1.07-1.87.24-3.46,1.65-4.56,1.53-1.19,3.03-2.72,5.3-2.34Z"/>
    <path class="cls-36" d="M203.44,129.65c-1.41-1.93-.51-4.12-.66-6.18-.29-3.98.5-8.01-.73-11.95-.25-.8-.23-1.77.63-2.39,1.55,6.79,1.87,13.63.75,20.52Z"/>
    <path class="cls-16" d="M211.09,186.78c-1.18-6.58-1.13-13.16-.05-19.75.93,6.58.74,13.17.05,19.75Z"/>
    <path class="cls-4" d="M287.2,182.19c-1.07-4.54-1.04-9.09-.02-13.63.37,4.54.31,9.09.02,13.63Z"/>
    <path class="cls-19" d="M285.7,159.35c-.76-3.51-1.52-7.02-.71-10.64,1.2,3.48,1.1,7.05.71,10.64Z"/>
    <path class="cls-7" d="M66.09,147.89c-3.79,0-7.57-.01-11.36-.02,3.79-.73,7.58-1.12,11.36.02Z"/>
    <path class="cls-11" d="M150.99,309.35c3.26-1.15,6.54-1.03,9.82-.07-3.27.44-6.54.32-9.82.07Z"/>
    <path class="cls-10" d="M99.98,299.38c2.51-.97,5.01-.96,7.52,0-2.51.6-5.01.47-7.52,0Z"/>
    <path class="cls-1" d="M125.1,223.51c-3.82,2.15-7.38,4.68-10.42,7.82-1.52,1.58-1.84.5-2.42-.6-1.33-.85-1.46-2.32-1.8-3.63-3.34-12.99-6.28-26.09-11.19-38.62-.91-2.33-.61-4.3,1.05-6.31,5.88-7.16,13.9-10.74,22.29-13.8,8.62-3.15,17.55-3.5,26.58-3.13,1.13.05,2.31.05,3.08,1.11,2.44,1.22,5.61.06,7.7,2.39,1.75,3.02,2.44,6.23,1.71,9.69.61,2.29-1.03,2.58-2.61,3.23-5.21,2.14-5.18,3.81-3.18,9.08,1.36,3.56,3.63,6.9,3.88,10.89.14,2.19,1.71,3.33,3.42,4.17,3.43,1.7,3.57,4.55,2.96,7.74-4.54.5-9.09.42-13.64.03-1.17-.2-2.26.09-3.33.51-.61.98-1.67,1.06-2.63,1.3-6.42,1.54-12.6,3.71-18.24,7.22-.99.62-2.05.97-3.22.91Z"/>
    <path class="cls-20" d="M125.86,76.44c-12.8.56-24.81,4.1-36.34,9.71,4.76-5.88,10.69-10.13,17.45-13.25,7.66-3.54,15.79-5.34,24.13-6.33,1.37-.16,2.8-.02,4.07-.75,3.69-.82,7.38-.78,11.07-.03,4.48.8,9.03,1.33,13.43,2.45,36.5,9.28,52.63,54.84,29.85,84.22-5.23,6.75-12.01,11.57-19.7,15.17-1.02.48-2,1.04-3,1.56-1.41,1.4-3.05,2.37-4.92,1.16-1.05-.68-1.96-1.86-.76-3.29,1.94-.56,3.95-.95,5.8-1.72,4.71-1.96,6.06-4.25,6-9.36-.08-6.19,1.29-11.65,6.6-15.75,3.81-2.95,5.77-7.27,6.34-12.12-.41-3.78-.4-7.56,0-11.35-1.97-12.53-5.77-24.1-16.97-31.64-5.6-3.77-11.74-6.32-18.45-7.36-2.55-.93-5.21-1.2-7.89-1.32-5.57.46-11.13.46-16.7,0Z"/>
    <path class="cls-20" d="M79.46,100.17c4.17-9.57,13.52-11.83,21.9-15.31,7.16-2.98,14.85-3.99,22.44-5.29,7.99-.79,15.96-1.28,23.86.76.31.43,1.04.57.92,1.3-3.5.81-7.02.49-10.54.16-4.83.1-9.55.73-14.21,3.21,2.15,2.2,3.32,4.66,2.76,7.73-.52,2.86-2.06,5.14-3.95,7.2-6.93,7.6-20.21,9.98-29.42,5.45-4.29-2.11-5.41-5.57-4.53-10.32-3.16,1.27-5.17,3.39-7.52,5-.43.3-1.05,1.85-1.72.12Z"/>
    <path class="cls-20" d="M64.89,149.38c3.26.38,6.2,1.66,9.06,3.17,3.55,3.3,7.1,6.61,10.65,9.91,3.17,1.44,4.02,4.64,5.39,7.37,1.4,2.78,2.23,5.81,3.39,9.09,2.59-2.09,3.39-5.27,5.94-6.87,1.23-.34,2.62-.13,3.67-1.09,1.16-.64,2.18-1.64,3.66-1.46.47.11.85.36,1.09.78,2.93-.29,5.25-2.42,7.24-2.54-.05.01-.98.42-1.95.64-1.11.15-1.92-.52-2.81-1-.48-.14-.97-.26-1.45-.4-.62-.26-1.34-.44-1.18-1.37,13.51-8.96,28.34-9.88,43.74-7.06,2.5.46,4.56,4.47,3.42,6.22-1.12.91-2.36.54-3.63.43-15.19-1.3-29.48,1.51-42.54,9.61-3.01,1.87-5.92,3.89-8.09,6.78-1.35,1.79-3.1,2.52-5.33,2.03-.49-.11-1.04-.31-1.5-.19-4.86,1.28-7.44-1.53-9.04-5.39-2.82-6.8-8.49-10.5-14.43-14-5.55-3.05-11.56-3.09-17.63-2.72-1.26.08-2.49.41-3.66-.32-.7.11-1.57.53-2.05.26-.61-.34-.02-1.08.26-1.62,1.16-2.2,2.31-4.41,3.49-6.61,1.26-2.36,3.12-3.76,5.92-3.63,2.79-.47,5.57-.45,8.36-.01Z"/>
    <path class="cls-31" d="M70.96,163.38c6.49,3.3,11.72,7.83,14.92,14.56,1.38,2.9,2.7,4.89,7.21,4.77,4.25-.11,6.31-1.72,9-4.13,10.96-9.82,24.32-13.67,38.66-14.7,4.68-.34,9.39-.14,14.01.89-.08,1.71-1.5,1.31-2.49,1.58-14.09-1.31-27.52.87-40.07,7.65-4.15,2.24-7.88,4.97-11.01,8.6-1.55,1.8-1.73,3.27-.93,5.4,4.97,13.18,8.19,26.88,11.73,40.48.19.73.18,1.5.27,2.25-.54.84-1.08,1.68-1.63,2.52-1.75-1.05-1.84-2.95-2.25-4.62-2.77-11.18-5.57-22.34-8.95-33.36-.7-2.3-1.28-4.65-2.57-6.71-.65-1.04-1.69-1.66-2.91-1.11-1.1.49-.71,1.54-.39,2.33,5.06,12.78,7.35,26.29,10.46,39.58.32,1.36,1.07,2.58,1.22,3.98-1.35,1.27-2.62.55-2.8-.75-.29-2.11-2.31-3.89-1.25-6.27-.41.53-.82,1.07-1.23,1.6-1.78-1.09-1.69-3.02-2.06-4.71-2.38-11.04-4.22-22.25-8.86-32.63-3.94-8.79-8.24-17.47-16.87-22.89-.97-.61-1.9-1.3-2.3-2.45-.13-.9.11-1.59,1.07-1.86Z"/>
    <path class="cls-33" d="M100,172.36c-2.05,1.94-3.44,4.33-4.77,6.78-.37.69-.41,1.95-1.66,1.73-1.03-.18-1.24-1.12-1.44-2.01-1.34-6-4.03-11.39-7.54-16.4.72-.38,1.45-.63,2.19-.03,2.66,1.39,4.38,3.99,7.15,5.34,2.78,1.35,5.14,1.82,7.38-.73.62.51,1.25,1.03,1.87,1.54-.07,2.1-1.63,2.94-3.19,3.77Z"/>
    <path class="cls-5" d="M101.32,167.04c-1.03,3.29-3.01,3.54-6.02,2.37-3.68-1.43-6.47-3.69-8.51-6.98.29-1.12.82-.47,1.29-.16,4.03,2.65,8.51,4.05,13.24,4.77Z"/>
    <path class="cls-15" d="M161.14,167.06c.5,4.42,3.37,2.51,5.67,2.13.02,1.13.64,1.81,1.64,2.21-.09.24-.21.53-.43.59-2.9.73-4.52,2.54-4.81,5.53-.07.57-.14,1.14-.2,1.71-.44-.27-.89-.55-1.33-.82-.53-3.24-1.83-6.34-1.71-9.69.2-.69.26-1.47,1.16-1.67Z"/>
    <path class="cls-17" d="M147.66,80.32c-7.93-1.05-15.89-.87-23.86-.76-.57-.16-1.14-.32-1.71-.48,8.63-.25,17.24-1.03,25.81.23.71.52.12.73-.24,1Z"/>
    <path class="cls-20" d="M100,172.36c1.06-1.26,2.13-2.51,3.19-3.77,1.47-.99,2.94-1.99,4.41-2.98.55.25,1.11.5,1.66.75-1.04,3.03-4.64,2.97-6.3,5.25-.63,1.66-1.69,1.64-2.97.75Z"/>
    <path class="cls-20" d="M115.55,137.24c2.26-3.98,5.5-6.99,7.58-8.82-1.81,2.1-4.7,5.46-7.58,8.82Z"/>
    <path class="cls-20" d="M158.69,114.1c-1.1,2.4-2.92,4.12-5.19,5.4,1.19-2.32,2.88-4.16,5.19-5.4Z"/>
    <path class="cls-21" d="M138.04,81.78c3.51-.05,7.02-.11,10.54-.16-3.49,1.42-7.01,1.11-10.54.16Z"/>
    <path class="cls-28" d="M185.87,116.76c.5,3.78.63,7.56,0,11.35-1.05-3.78-1.03-7.56,0-11.35Z"/>
    <path class="cls-20" d="M160.03,144.56c-1.16-.73-2.89-1.21-2.06-3.01.27-.58,2.19-1.23,2.26.25.03.72.48,1.88-.2,2.76Z"/>
    <path class="cls-20" d="M86.68,125.67c.49-1.78,1.68-3,3.58-4.46-.45,2.61-1.83,3.68-3.58,4.46Z"/>
    <path class="cls-20" d="M135.62,109.91c-.07.87-.47,1.44-1.41,1.39-.86-.05-1.42-.54-1.41-1.42,0-1,.51-1.76,1.59-1.61.81.11,1.22.79,1.23,1.64Z"/>
    <path class="cls-1" d="M70.1,165.1c15.47,9.5,20.82,25.17,25.09,41.42,1.86,7.06,3.21,14.26,4.78,21.4.11,1.73-.63,1.37-1.76.86-4.49-2.04-8.85-4.41-13.66-5.69-1.95-.52-4-1.51-5.89-1.28-4.81.58-6.17-2.61-8.45-5.83-3-4.24-1.47-8.59-1.88-12.88-.29-3.03-.59-6-2.68-8.41-.4-.46-.87-.74-.97-1.47-.74-5.74-1.3-6.16-7.12-5.41-.68.09-1.24.1-1.74-.39-2.61-6.12-5.24-12.22-7.83-18.35-2.08-4.91-2.06-4.91,2.61-6.53,5.42-2.87,16.16-1.46,19.49,2.57Z"/>
    <path class="cls-1" d="M124.17,255.15c-1.12,8.79-2.5,17.52-5.92,25.77-2.17,5.23-4.4,10.42-9.37,14.2-.67-2.1-.01-4.13-1.23-5.7-3.25-4.12-6.18-8.46-9.53-12.53-5.08-6.18-12.16-7.57-19.34-4.89-1.28.48-2.45,1.37-3.95,1.01-2.03-5.26,1.46-11.23,7.55-12.92,1.07-.3,2.15-.57,3.23-.86,3.78-1.47,7.21.94,10.81,1.08.74-1.29-.85-1.39-.9-2.21l.07.1c-4.03-1.44-8.26-1-12.41-1.3-2.31-.07-1.37-1.69-1.13-2.7.72-3.06,1.73-6.06,2.4-9.13.87-3.95,3.35-5.95,7.16-6.79,9.49-2.09,18.79-2.72,27.34,3.13,3.02,2.07,6.16,4.16,5.43,8.63.34,1.72.72,3.44-.21,5.11Z"/>
    <path class="cls-32" d="M134.11,258.06c-.02-.12-.06-.25-.04-.37,1.76-12.28-.31-9.94,12.49-13.65,2.18-.79,4.36-.75,6.55-.02,4.86,1.35,9.95,2.09,14.4,4.57,5.8,3.22,9.19,5.31,8.03,13.41-1.76,12.19-3.22,24.31-8.73,35.5-.88,1.79-1.21,4.15-3.57,4.93-1.55-1.41-.96-3.29-1.11-5.01-.39-4.53-.41-9.12-2.12-13.44-2.4-6.06-7.54-7.95-13.35-8.4-5.33-.42-9.92.86-12.81,6.22-.83,1.54.33,3.4-1.34,4.46-.16.33-.27.71-.51.98-.44.49-.59.02-.62-.31-.18-1.96-.14-3.95-.87-5.83-.74-1.42-.72-2.83-.01-4.25.76-8.23,5.67-12.65,13.37-14.39,12.67-2.86,20.21,3.38,24.56,14.5,1.91-.65,1.09-1.68.92-2.36-3.16-12.47-13.81-18.53-27.04-15.41-1.11.26-2.21.55-3.31.83-1.16.47-2.38.29-3.57.26-1.51-.04-1.8-.92-1.32-2.21Z"/>
    <path class="cls-32" d="M169.11,211.96c-.22-1.11-.44-2.22-.72-3.67,5.1.68,10,1.68,15,1.34,5.78-.39,5.81-.36,4.61,5.37-1.56,7.44-4.28,14.4-8.96,21.16-2.58-8.77-7.53-14.35-16.69-15-2.77.47-5.53.41-8.3.04-10.58.98-16.29,7.6-19.56,16.97-.79,2.26-1.48,4.59-1.86,6.94-.29,1.79-1.04,2.39-2.73,2.26-1.78-.14-1.82-1.27-1.8-2.66.07-5.7,0-11.36-2.85-16.6-1.2-2.22,1.69-1.95,2.27-3.15.21-1.3,1.25-1.86,2.25-2.4,7.89-4.27,16.04-7.6,25.27-7.21,3.42.14,6.88-.24,10.27.1,2.94.3,3.82-.93,3.81-3.49Z"/>
    <path class="cls-1" d="M150.4,305.48c-.35-.13-.7-.38-1.05-.38-12.7-.27-13.87-7.3-14.71-18.55-.07-1,.16-2.02.26-3.02-.66-2.72.95-4.3,2.92-5.63,7.76-5.27,20.11-.87,22.7,8.15,1.48,5.14,1.41,10.5,1.8,15.79.06.77-.19,1.5-.83,2.03-.36,1.13-1.43,1.26-2.3,1.66-2.93.75-5.86.81-8.78-.04Z"/>
    <path class="cls-32" d="M163.22,177.52c-2.29-5.5,2.12-5.26,5.24-6.12,6.15-1.74,11.74-4.62,16.6-8.76,1.71-1.45,2.93-1.48,4.47.05,7.05,7.04,12.3,15.11,13.36,25.23.75,7.12-3.51,13.45-9.36,14.83-.29-3.28-.46-6.56,0-9.84-.88-5.05-2.04-9.97-6.05-13.63-6.33.41-12.66.48-18.98-.03-1.78-.53-4.61,2.16-5.28-1.73Z"/>
    <path class="cls-32" d="M157.94,186.55c3.86-2.69,8.37-3.81,12.92-4.33,4.51-.52,9.09-.37,13.64.06,1.34.13,2.45.28,3.01,1.73,2.24,5.82,4.17,11.66,2.91,18.07-.43,2.19-1.44,3.29-3.67,3.55-6.36.72-12.63.46-18.77-1.42-4.45-1.36-6.05-3.78-5.52-8.39.13-1.1.32-2.09-.85-2.55-1.33-.52-1.6-.75-.66-2.24,1.89-3.02-2.19-2.5-3-4.47Z"/>
    <path class="cls-1" d="M175.88,250.23c-12.07-8.99-24.73-12.47-39-6.43,3.4-18.2,16.52-21.88,29.68-17.72,6.16,1.95,8.28,7.65,8.9,13.48.36,3.41,1.14,6.91.42,10.66Z"/>
    <path class="cls-32" d="M106.09,291.89c-.05,5.57-.1,5.65-5.59,4.5-10.24-2.15-19.16-6.39-24.44-16.06-.93-1.7-2.21-3.56-.4-5.54,3.17-4.48,11.1-5.61,16.75-2.5,4.13,2.27,6.52,6.24,9.56,9.56,1.61,1.76,2.95,3.78,3.81,6.06.48,1.29,1.12,2.58.32,3.98Z"/>
    <path class="cls-22" d="M134.11,258.06c.96,2.35,3.45.82,4.89,1.94-9.31,4.49-13.25,8.91-12.03,23.46.29,3.39.78,6.76,1.19,10.19-1.06.74-2.11-.87-2.89-.21-.6.34-.63.59-.3.72.8.33,1.64.88,2.44.85,1.89-.07,1.97,1.39,2.25,2.5.53,2.1-1.83.44-2.22,1.69,1.17.95,3.15.44,4.4,2.5-4.9-.63-9.29-1.56-13.55-3.11.98-1.74-2.1-1.27-1.52-2.79.03-1.02-2.32-.55-1.34-2.11.67-1.08,1.5-.81,2.59-.42,1.41.5,2.83,1.8,4.57.66-5.2-2.21-5.16-2.19-2.74-7.57,4.23-9.4,7.02-19.17,7.43-29.53-.35-1.48-.65-2.95.2-4.37.47-1.38.08-3.4,2.79-2.83,2.65.56,1.22,2.31,1.22,3.52,0,2.5-.35,5-.4,7.5-.02.86-.39,2.29,1.14,2.3,1.15,0,1.02-1.22,1.24-2.02.26-.95.44-1.92.66-2.89Z"/>
    <path class="cls-22" d="M105.25,233.34c-1.64-.27-1.75-1.67-2.03-2.86-3.36-14.26-5.61-28.82-11.44-42.42-.32-.74-.96-1.96.65-1.82,1.9.17,4.46-1.38,5.46,1.72,1.63,5.06,3.43,10.07,4.84,15.19,2.75,10,5.29,20.07,7.91,30.11-1.77,1.63-3.6-.38-5.39.09Z"/>
    <path class="cls-27" d="M205.56,197.04c-.46,17.42-7.58,30.14-18.66,33.84,2.98-6.9,5.37-13.75,5.09-21.19-.04-1.01.24-1.74,1.22-2.07,5.33-1.78,9.18-5.39,12.34-10.59Z"/>
    <path class="cls-27" d="M207.96,182.8c-.3,1.6-.6,3.2-.89,4.79-2.41-10.98-7.09-20.72-15.36-28.48-1.18-1.11-.88-1.58-.08-2.65,3.48-4.63,4.64-4.69,9.29-1.2,4.81,3.62,5.81,8.93,7,14.23.88,4.44.82,8.87.03,13.31Z"/>
    <path class="cls-27" d="M62.49,207.77c-3.82,0-9.56-3.81-10.92-7.04-1.02-2.44-.26-4.44,1.52-6.17,2.07-2.01,4.54-3.23,7.43-3.27.82-.01.6.91.42,1.51-.18.6-.61,1.67-.52,1.71,2.75,1.42,2.8,4.44,4.2,6.55,1.25,1.89-1.53,4.27,1.31,5.27-.86,1.48-2.51.89-3.45,1.43Z"/>
    <path class="cls-12" d="M161.49,303.86c-.5-5.27-.71-10.59-1.55-15.81-1.45-8.99-12.51-14.21-20.64-9.98-2.27,1.18-3.58,3.11-4.39,5.45-.49-.04-1.51-.68-1.17.48,1.04,3.55.14,6.91-.97,10.33-.38-2.68.33-5.43-.26-8.09.12-7.37,3.45-11.04,10.62-11.7,11.6-1.08,18.32,4.54,19.49,16.13.39,3.91.95,7.8.62,11.75-.72.31,0,2.36-1.74,1.45Z"/>
    <path class="cls-24" d="M169.11,211.96c.96,2.85.79,4.4-3.07,4.04-13.79-1.29-26.7,1.62-38.52,8.96-.8-.48-1.61-.97-2.41-1.45,7.35-4.87,15.21-8.47,24.09-9.42,5.57,1.51,11.28.54,16.9.94,2.57.18,2.04-2.04,3.01-3.06Z"/>
    <path class="cls-12" d="M106.09,291.89c-2.23-7.93-7.44-13.82-13.82-18.44-5.51-3.99-11.3-2.08-16.61,1.34-.28-.59-.55-1.18-.83-1.78,8.19-5.5,16.31-4.72,23.05,2.35,3.98,4.17,8.15,8.24,9.77,14.06-.18,1.04-.45,2.02-1.56,2.47Z"/>
    <path class="cls-14" d="M114.55,235.36c2.3-2.72,4.64-4.92,7.77-6.64,1.18,3.97,2.06,7.77,1.97,12.17-3.2-2.26-6.32-4.01-9.75-5.54Z"/>
    <path class="cls-23" d="M88.92,236.04c3.12-7.52,4.58-7.83,11.44-2.33-3.88.79-7.64,1.56-11.44,2.33Z"/>
    <path class="cls-18" d="M95.52,258.1c.58.24,1.25.36,1.71.74.78.65,2.52.94,1.77,2.38-.56,1.08-1.82.33-2.72-.01-3.44-1.31-7.01-1.89-10.67-1.97-.15-.26-1.63-.53-.29-.76,2.96-.5,6-.1,8.82.92,1.83.67,1.51-.25,1.38-1.3Z"/>
    <path class="cls-2" d="M207.96,182.8c-.01-4.44-.02-8.87-.03-13.31.33-.05.73-1.57.79-.36.25,5.88.11,11.77-.32,17.68l-.43-4.01Z"/>
    <path class="cls-26" d="M168.5,179.25c6.33-.38,12.66-.75,18.98.03-6.33,1.04-12.66,1.12-18.98-.03Z"/>
    <path class="cls-20" d="M116.76,295.8c.46.16.91.45,1.37.44.95-.01,1.98.17,2.08,1.1.11,1.14-1.49.46-1.92,1.25-1.98-.21-3.79-.81-5.49-2.05,1.25-1.74,2.78-.1,3.96-.74Z"/>
    <path class="cls-35" d="M283.54,166.21c-1.96-4.65-.59-9.52-.94-14.27.26-.26.74-1.08.75-.7.18,4.99.16,9.98.19,14.97Z"/>
    <path class="cls-8" d="M284.12,179.75c.01-3.69.02-7.39.03-11.08.05-.11.09-.24.16-.34.13-.16.28-.31.43-.46.08,1.68.22,3.37.24,5.05.04,3.34.01,6.68-.38,10.05-.16-1.07-.32-2.15-.48-3.22Z"/>
    <path class="cls-18" d="M83.18,256.9c4.26-.69,8.46-.91,12.41,1.3-4.11-.7-8.37.05-12.41-1.3Z"/>
    <path class="cls-4" d="M125.86,76.44c5.57-.47,11.13-.51,16.7,0-5.57,1.1-11.13,1.08-16.7,0Z"/>
    <path class="cls-4" d="M146.23,65.79c-3.69.01-7.38.02-11.07.03-.37-.31-1.97-.81.03-.86,4.2-.11,8.4-.03,13.76-.03-1.64.52-2.18.69-2.72.86Z"/>
    <path class="cls-8" d="M180.04,241.83c-.07,4.5-.13,9-.2,13.5-1.37-4.5-.57-9.07-.45-13.62,0-.03.22-.08.32-.06.12.02.22.12.33.18Z"/>
    <path class="cls-6" d="M152.52,213.57c4.55-.47,9.09-.42,13.64-.03-4.54,1.08-9.09,1-13.64.03Z"/>
    <path class="cls-12" d="M228.51,280.76c.58-.98.95-2.54,2.47-.88-1.75,1.88-3.78,3.33-6.2,4.23-.3-.24-.6-.47-.9-.71.98-1.87,2.91-2.07,4.62-2.64Z"/>
    <path class="cls-4" d="M150.4,305.48c2.93.01,5.85.03,8.78.04.03.31,1.64.64.26.76-3.53.3-7.1.1-10.7-.28.55-.17,1.1-.35,1.65-.52Z"/>
    <path class="cls-8" d="M182.14,181.2h-11.16c0-.1,0-.19,0-.29h11.16c0,.1,0,.19,0,.29Z"/>
    <path class="cls-8" d="M193.53,192.92c.63,3.28.61,6.56,0,9.84-1.05-3.28-1.08-6.56,0-9.84Z"/>
    <path class="cls-6" d="M201.04,117.46v8.39c-.09,0-.18,0-.27,0v-8.39c.09,0,.18,0,.27,0Z"/>
    <path class="cls-8" d="M153.11,244.01c-2.18,0-4.37.01-6.55.02-.11-.05-.22-.11-.33-.16-.31-.14-.64-.61-.27-.62,2.59-.11,5.21-.19,7.79.02.48.04-.41.46-.63.74Z"/>
    <path class="cls-3" d="M130.49,276.82c0,1.42,0,2.84.01,4.25-.17.55-.34,1.1-.76,2.48v-9.16c.41,1.35.58,1.89.75,2.42Z"/>
    <path class="cls-10" d="M124.17,255.15c.07-1.7.14-3.4.21-5.11,1.35,2.44.44,5.01.31,7.56l-.52-2.45Z"/>
    <path class="cls-8" d="M154.05,221.19c2.77-.39,5.53-.33,8.3-.04-2.76,1.07-5.53,1.02-8.3.04Z"/>
    <path class="cls-4" d="M127.46,252.47c-.07,1.46-.13,2.91-.2,4.37-1.37-2.18-.37-4.53-.33-6.82.18.82.35,1.64.53,2.46Z"/>
    <path class="cls-20" d="M256.86,12.39c-1.73,1.46-4.06,2.05-5.57,3.84-.75.89-1.56,1.81-.67,2.99.73.95,1.79.78,2.77.39.7-.27,1.34-.75,2.05-.92,1.18-.29,2.37-2.4,3.36-.87.85,1.3-1.08,2.39-2.09,3.16-5.29,4.07-10.52,8.38-17.94,7.36-1.32-.18-2.44.48-3.31,1.49-7.34,1.12-9.81-.57-10.6-6.94,11.17-2.17,22.56-3.65,29.86-14.48.74,1.24,2.22,2.12,2.13,3.98Z"/>
    <path class="cls-20" d="M227.73,20.93c-1.55-.25-3.72.21-3.26-2.16.36-1.86-.48-4.3,3.27-4.83,7.49-1.06,15.56-1.51,20.5-8.72,1.05-1.54,1.91-.86,2.75-.17,1.02.84,3.07,1.16,1.92,3.36-1.01,1.94-2.15,3.82-4.01,4.97-6.54,4.04-13.88,5.91-21.17,7.55Z"/>
    <path class="cls-20" d="M230.93,31.33c9.34-.74,18.63-1.61,26.03-8.38.54-.49,1.09-.96,1.68-1.49.78,1.12.04,2.1.25,3.03-2.83,5.99-7.05,10.33-14.12,9.9-3.57-.22-6.99-1.43-10.69-.28-1.37.43-3-.9-4.02-2.26.29-.18.58-.35.86-.53Z"/>
    <path class="cls-20" d="M247.75,3.66c-5.5,7.53-13.91,6.72-21.52,9.85,3.6-8.63,13-12.73,21.52-9.85Z"/>
    <path class="cls-20" d="M242.44,35.62c-2.09.47-3.56.66-5.56-.45,2.13-1.07,3.57-.81,5.56.45Z"/>
    <path class="cls-9" d="M70.1,165.1c-6.13-3.66-12.8-3.18-19.49-2.57-.75-.31-1.36-.76-1.7-1.53,7.61-1.6,15.04-1.6,22.04,2.39-.29.57-.57,1.15-.86,1.72Z"/>
    <path class="cls-7" d="M64.89,149.38c-2.79,0-5.57,0-8.36.01,2.79-1.1,5.57-1.1,8.36-.01Z"/>
    <path class="cls-20" d="M251.84,18.73c1.24-2.77,3.33-3.22,4.96-4.26.48-.31,1.12-.81,1.49.09.26.63.03,1.17-.69,1.49-1.68.75-3.34,1.55-5.77,2.68Z"/>
    <path class="cls-37" d="M138.66,187.57c2.96,8.34-1.71,15.24-10.52,15.27-2.9.01-5.61-.34-7.93,2.1-.92.97-2.84,1.81-4.13.53-1.19-1.19-.7-3.12.12-4.27,2.06-2.89,2.65-5.89,2.47-9.43-.26-5.15,2.64-8.54,7.42-10.22,4.61-1.62,8.02.72,11.18,3.69,1.17.35,1.01,1.5,1.4,2.33Z"/>
    <path class="cls-12" d="M147.73,202.68c-1.89,4.56-6.3,4.15-9.34,5.24-3.08,1.11-6.09,3.27-9.84,2.88-.95-.1-3.52,1.08-2.59,4.07-2.39-1.96-2.74-3.95-1.49-5.96,1.26-2.05,3.55-1.6,5.04-.66,1.63,1.03,2.34,1.06,3.21-.63.44-.85,4.26-1.43,5.52-1.21,1.57.28,2.19-.88,2.52-2.14.22-.83,1.03-2.25,1.26-1.65,1.69,4.5,3.47.19,5.71.06Z"/>
    <path class="cls-12" d="M121.77,217.94c-.26-2.11-1.07-3.2-3.27-3.42-1.66-.17-2.27-1.51-1.65-3.08.62-1.59,1.89-1.94,3.35-1.16.67.36,1.66.85.25,1.73-1.43.89-.52,1.13.46,1.42,2.97.89,2.02,2.66.86,4.51Z"/>
    <path class="cls-12" d="M138.66,187.57c-.87-.53-1.01-1.5-1.4-2.33,1.28-.26,1.74-1.38,2.32-2.32.48-.78,1.55-1.71.55-2.59-.78-.68-1.59.17-2.24.78-.55.52-1.28,1.2-1.82.24-.46-.82.48-1.29,1.07-1.69,1.28-.87,2.75-1.75,4.16-.64,1.49,1.18.66,2.64-.06,4.02-.8,1.54-2.42,2.62-2.57,4.52Z"/>
    <path class="cls-13" d="M52.9,158.5c4.18-2.56,13.33-1.5,17.55,2.12-5.73-1.78-11.55-2.66-17.55-2.12Z"/>
    <path class="cls-30" d="M74.09,159.29c-.1.32-.2.64-.29.96-4.67-3.71-10.52-4.18-16.72-5.62,1.89-1.01,3.17-.73,4.41-.54,1.36.21,2.71.53,4.06.8,3.52.15,6.81.77,8.54,4.4Z"/>
    <path class="cls-34" d="M67.16,154.08c-.61-.38-1.22-.76-1.87-1.16,4.18-.68,10.4,2.77,12.4,6.92-1.31.28-1.94-.86-2.87-1.25-2.47-1.64-5.21-2.84-7.66-4.51Z"/>
    <path class="cls-12" d="M112.95,167.8c1.89-.46,3.59-1.79,6.66-1.07-4.98,2.12-9.41,3.45-13.57,6.18.08-1.61,1.01-1.7,1.44-2.25,1.21-2.13,3.47-2.24,5.46-2.87Z"/>
    <path class="cls-20" d="M67.16,154.08c2.9.92,5.69,2.01,7.66,4.51-.24.23-.49.46-.73.69-2.44-2.26-5.57-3.18-8.54-4.4.55-.25,1.32-.05,1.61-.8Z"/>
    <path class="cls-29" d="M102.97,171.61c1.24-2.78,4.15-3.57,6.3-5.25.42-.03.85-.06,1.27-.09.59,3.31-2.32,2.78-3.97,3.63-1.29.38-2.07,1.84-3.6,1.72Z"/>
    <path class="cls-25" d="M91.61,170.78q5.27,1.99,2.14,6.06c-.69-1.96-1.33-3.75-2.14-6.06Z"/>
    <path class="cls-19" d="M273.18,212.19c3.93-6.32,1.61-13.71,3.56-21.12,2.32,6.35.65,16.69-3.56,21.12Z"/>
    <path class="cls-12" d="M266.57,231.76c-.21-2.02,4.15-12.14,5.93-14.18-.43,6.04-4.26,9.64-5.93,14.18Z"/>
    <path class="cls-12" d="M254.77,252.85c-3.27,4.13-5.42,9.1-10.22,12.07l9.41-12.79c.27.24.54.48.81.72Z"/>
    <path class="cls-12" d="M257.69,246.84c1.25-3.06,3.38-5.4,5.98-7.35-1.35,2.98-3.18,5.56-5.98,7.35Z"/>
    <path class="cls-12" d="M197.31,293.6c-2.22,2.06-5,2.63-7.93,2.7,2.36-1.67,5-2.48,7.93-2.7Z"/>
    <path class="cls-12" d="M226.51,279.76c-1.54.88-3.08,1.76-4.62,2.64-1.17.49-2.34.97-3.5,1.46,2.43-1.98,4.59-4.49,8.13-4.1Z"/>
    <path class="cls-12" d="M175.54,294.78c2.57-1.16,4.38-1.98,6.18-2.8-1.42,1.86-2.8,3.77-6.18,2.8Z"/>
    <path class="cls-12" d="M233.89,271.83c-.67,1.91-2.21,2.73-4.05,3.19.67-1.82,2.24-2.66,4.05-3.19Z"/>
    <path class="cls-12" d="M208.7,291.07c1.64-2.21,3.04-2.64,5.13-3.46-1.12,2.58-2.62,2.82-5.13,3.46Z"/>
    <path class="cls-12" d="M59.66,261.47c-1.57-3.18-3.84-6.11-3.66-9.94,2.12,3.75,3.58,7.87,7.21,11.66-2.38.08-2.75-1.19-3.55-1.72Z"/>
    <path class="cls-12" d="M175.41,199.55c-.25-4.93-1.06-9.1-2.27-13.2,3.4,3.52,4.49,9.27,2.27,13.2Z"/>
    <path class="cls-20" d="M119.84,192.35c.38-3.87,2.14-6.91,5.93-8.85,3.61-1.85,6.33-.17,9.09,1.76,1.26.88,2.06,1.83.54,3.31-3.53,3.46-6.98,7-10.43,10.55-1.09,1.13-1.82.91-2.7-.28-1.4-1.89-2.35-3.9-2.43-6.49Z"/>
    <path class="cls-20" d="M125.46,201c4.1-4.34,7.79-8.23,11.73-12.4,1.33,3.11,1.04,5.86-.75,8.46-2.51,3.66-6.17,4.47-10.99,3.94Z"/>
    <path class="cls-20" d="M117.58,203.93c-.42-2.29.93-3.66,2.04-5.34,1.2.58,2.38,1.81,2.09,2.68-.55,1.65-2.35,2.22-4.13,2.65Z"/>
  </g>
  <g id="Capa_6" data-name="Capa 6">
    <path class="cls-20" d="M106.22,172.02s5.29-3.4,8.27-4.73,2.98-2.33,2.98-2.33h-2s-9.33,5.01-10.67,6-1.28,1.95-1.28,1.95l2.64-.77"/>
    <polygon class="cls-39" points="336.09 194.65 330.68 195.22 328.09 200 325.87 195.03 320.53 194.04 324.57 190.4 323.86 185.01 328.57 187.72 333.48 185.38 332.35 190.7 336.09 194.65"/>
    <polygon class="cls-39" points="194.11 358.15 189.07 358.64 186.63 363.07 184.6 358.44 179.63 357.48 183.41 354.12 182.79 349.1 187.15 351.66 191.73 349.51 190.65 354.45 194.11 358.15"/>
    <polygon class="cls-38" points="253.92 323.18 251.52 321.98 249.17 323.28 249.57 320.63 247.61 318.79 250.25 318.35 251.39 315.92 252.63 318.3 255.3 318.63 253.41 320.55 253.92 323.18"/>
    <circle class="cls-12" cx="291.98" cy="276.46" r="3"/>
    <circle class="cls-12" cx="93.48" cy="347.96" r="3"/>
    <circle class="cls-12" cx="17.98" cy="232.46" r="3.5"/>
    <circle class="cls-12" cx="152.98" cy="22.46" r="2.5"/>
    <polygon class="cls-39" points="297.7 61.13 293.16 60.12 289.76 63.28 289.32 58.65 285.26 56.39 289.52 54.54 290.42 49.98 293.49 53.47 298.11 52.91 295.74 56.91 297.7 61.13"/>
    <polygon class="cls-39" points="14.7 304.13 10.16 303.12 6.76 306.28 6.32 301.65 2.26 299.39 6.52 297.54 7.42 292.98 10.49 296.47 15.11 295.91 12.74 299.91 14.7 304.13"/>
    <polygon class="cls-12" points="136.34 180.24 133.48 182.96 135.48 183.96 138.25 180.78 136.34 180.24"/>
  </g>
</svg>